<?xml version="1.0" standalone="no"?>
<!DOCTYPE svg PUBLIC "-//W3C//DTD SVG 1.1//EN" "http://www.w3.org/Graphics/SVG/1.1/DTD/svg11.dtd" >
<svg xmlns="http://www.w3.org/2000/svg">
<metadata>Generated by IcoMoon</metadata>
<defs>
<font id="icomoon" horiz-adv-x="1024">
<font-face units-per-em="1024" ascent="960" descent="-64" />
<missing-glyph horiz-adv-x="1024" />
<glyph unicode="&#x20;" horiz-adv-x="512" d="" />
<glyph unicode="&#xe900;" glyph-name="accordion" d="M64 712.726c0 33.74 27.351 61.091 61.091 61.091h773.821c33.734 0 61.088-27.352 61.088-61.091s-27.354-61.091-61.088-61.091h-773.821c-33.74 0-61.091 27.351-61.091 61.091zM64 447.999c0 33.74 27.351 61.091 61.091 61.091h773.821c33.734 0 61.088-27.351 61.088-61.091s-27.354-61.091-61.088-61.091h-773.821c-33.74 0-61.091 27.352-61.091 61.091zM125.091 244.365c-33.74 0-61.091-27.354-61.091-61.094s27.351-61.088 61.091-61.088h773.821c33.734 0 61.088 27.347 61.088 61.088s-27.354 61.094-61.088 61.094h-773.821z" />
<glyph unicode="&#xe901;" glyph-name="anchor" d="M64 448c0 123.712 100.288 224 224 224h179.2v-89.6h-179.2c-74.227 0-134.4-60.173-134.4-134.4s60.173-134.4 134.4-134.4h179.2v-89.6h-179.2c-123.712 0-224 100.288-224 224zM960 448c0 123.712-100.288 224-224 224h-179.2v-89.6h179.2c74.227 0 134.4-60.173 134.4-134.4s-60.173-134.4-134.4-134.4h-179.2v-89.6h179.2c123.712 0 224 100.288 224 224zM377.592 492.802c-24.742 0-44.8-20.058-44.8-44.8s20.058-44.8 44.8-44.8h268.802c24.742 0 44.8 20.058 44.8 44.8s-20.058 44.8-44.8 44.8h-268.802z" />
<glyph unicode="&#xe902;" glyph-name="block" d="M64 692.364c0 44.986 36.468 81.454 81.455 81.454h733.092c44.986 0 81.453-36.468 81.453-81.454v-488.724c0-44.992-36.467-81.459-81.453-81.459h-733.092c-44.986 0-81.455 36.467-81.455 81.459v488.724zM878.547 692.364h-733.092v-488.724h733.092v488.724zM128 256.068h768v-128h-768v128zM128 768.068h768v-128h-768v128z" />
<glyph unicode="&#xe903;" glyph-name="button" d="M552.727 488.833c-22.493 0-40.727-18.234-40.727-40.728s18.234-40.727 40.727-40.727h122.185c-0.154-10.619 3.821-21.286 11.923-29.389 15.904-15.905 41.69-15.905 57.6 0l36.87 36.876c1.555 1.159 3.040 2.443 4.448 3.852 8.026 8.028 12 18.573 11.923 29.094 0.077 10.522-3.898 21.068-11.923 29.095-1.408 1.409-2.893 2.692-4.448 3.852l-36.87 36.876c-15.91 15.905-41.696 15.905-57.6 0-7.955-7.953-11.93-18.378-11.93-28.801h-122.179zM145.455 692.468c-44.986 0-81.455-36.468-81.455-81.454v-325.818c0-44.986 36.468-81.453 81.455-81.453h733.092c44.986 0 81.453 36.467 81.453 81.453v325.818c0 44.986-36.467 81.454-81.453 81.454h-733.092zM145.455 611.014h733.092v-325.818h-733.092v325.818z" />
<glyph unicode="&#xe904;" glyph-name="cms-video" d="M64 692.364c0 44.986 36.468 81.454 81.455 81.454h733.092c44.986 0 81.453-36.468 81.453-81.454v-488.724c0-44.992-36.467-81.459-81.453-81.459h-733.092c-44.986 0-81.455 36.467-81.455 81.459v488.724zM878.547 692.364h-733.092v-488.724h733.092v488.724zM397.972 545.011c0 30.276 31.861 49.967 58.941 36.428l194.025-97.011c30.016-15.009 30.016-57.846 0-72.856l-194.025-97.008c-27.080-13.542-58.941 6.149-58.941 36.425v194.022z" />
<glyph unicode="&#xe905;" glyph-name="code" d="M340.39 737.591l-242.734-242.735c-0.576-0.499-1.139-1.023-1.686-1.57l-22.598-22.599c-6.263-6.263-9.387-14.476-9.373-22.685-0.015-8.209 3.11-16.422 9.373-22.685l22.598-22.598c0.547-0.547 1.11-1.071 1.686-1.57l242.734-242.735c12.497-12.499 32.758-12.499 45.255 0l22.598 22.598c12.497 12.499 12.497 32.762 0 45.254l-221.735 221.736 221.735 221.735c12.497 12.497 12.497 32.758 0 45.254l-22.598 22.599c-12.497 12.497-32.758 12.497-45.255 0zM683.609 737.591l242.733-242.735c0.576-0.499 1.139-1.023 1.69-1.57l22.598-22.599c6.259-6.263 9.382-14.476 9.37-22.685 0.013-8.209-3.11-16.422-9.37-22.685l-22.598-22.599c-0.55-0.547-1.114-1.071-1.69-1.571l-242.733-242.735c-12.499-12.499-32.762-12.499-45.256 0l-22.598 22.598c-12.497 12.499-12.497 32.762 0 45.254l221.736 221.736-221.736 221.735c-12.497 12.497-12.497 32.758 0 45.254l22.598 22.599c12.494 12.497 32.756 12.497 45.256 0z" />
<glyph unicode="&#xe906;" glyph-name="column" d="M198.399 896h627.203c49.478 0 89.6-40.115 89.6-89.6v-716.8c0-49.485-40.115-89.6-89.6-89.6h-627.203c-49.485 0-89.6 40.115-89.6 89.6v716.8c0 49.485 40.115 89.6 89.6 89.6zM556.799 89.6h268.803v716.8h-268.803v-716.8z" />
<glyph unicode="&#xe907;" glyph-name="columns" d="M108.797 806.4c0 49.485 40.115 89.6 89.6 89.6h332.8l25.6-89.6v-716.8l-25.6-89.6h-332.8c-49.485 0-89.6 40.115-89.6 89.6v716.8zM467.197 806.4h-268.8v-716.8h268.8v716.8zM467.197 806.4l25.6 89.6h332.803c49.485 0 89.6-40.115 89.6-89.6v-716.8c0-49.485-40.115-89.6-89.6-89.6h-332.803l-25.6 89.6v716.8zM825.6 806.4h-268.803v-716.8h268.803v716.8z" />
<glyph unicode="&#xe908;" glyph-name="copy" d="M186.183 692.364c22.493 0 40.727-18.234 40.727-40.727v-570.184h407.273c22.492 0 40.725-18.234 40.725-40.723 0-22.496-18.234-40.73-40.725-40.73h-407.273c-44.986 0-81.455 36.467-81.455 81.453v570.184c0 22.493 18.234 40.727 40.728 40.727zM308.365 814.545c0 44.986 36.468 81.455 81.454 81.455h407.272c44.986 0 81.453-36.468 81.453-81.455v-570.18c0-44.986-36.467-81.453-81.453-81.453h-407.272c-44.986 0-81.454 36.467-81.454 81.453v570.18zM797.091 814.545h-407.272v-570.18h407.272v570.18z" />
<glyph unicode="&#xe909;" glyph-name="divider" d="M64 473.6c0 17.673 14.327 32 32 32h832c17.67 0 32-14.327 32-32v-51.2c0-17.673-14.33-32-32-32h-832c-17.673 0-32 14.327-32 32v51.2z" />
<glyph unicode="&#xe90a;" glyph-name="banner" d="M64 692.364c0 44.986 36.468 81.454 81.455 81.454h733.092c44.986 0 81.453-36.468 81.453-81.454v-488.724c0-44.992-36.467-81.459-81.453-81.459h-733.092c-44.986 0-81.455 36.467-81.455 81.459v488.724zM878.547 692.364h-733.092v-488.724h733.092v488.724zM226.909 610.909h529.456v-81.455h-529.456v81.455zM226.909 448h203.636v-81.454h-203.636v81.454zM226.909 529.454h366.546v-81.455h-366.546v81.455z" />
<glyph unicode="&#xe90b;" glyph-name="fullscreen-exit" d="M422.086 357.764c17.496-17.496 17.496-45.862 0-63.359l-281.919-281.28c-17.495-17.498-45.224-17.498-62.72 0s-18.129 45.229-0.634 62.72l281.916 281.919c17.496 17.496 45.861 17.496 63.357 0zM121.608 370.886c0 24.742 20.058 44.8 44.8 44.8h268.8c24.742 0 44.8-20.058 44.8-44.8s-20.058-44.8-44.8-44.8h-268.8c-24.742 0-44.8 20.058-44.8 44.8zM435.208 415.686c24.742 0 44.8-20.058 44.8-44.8v-268.801c0-24.742-20.058-44.8-44.8-44.8s-44.8 20.058-44.8 44.8v268.801c0 24.742 20.058 44.8 44.8 44.8zM557.439 493.428c-17.496 17.495-17.496 45.861 0 63.356l326.719 326.092c17.491 17.496 45.222 17.495 62.72-0.001 17.491-17.496 17.491-45.87 0-63.366l-326.083-326.082c-17.496-17.496-45.861-17.496-63.357 0zM902.719 525.106c0-24.742-20.058-44.8-44.8-44.8h-268.801c-24.742 0-44.8 20.058-44.8 44.8s20.058 44.8 44.8 44.8h268.801c24.742 0 44.8-20.058 44.8-44.8zM589.117 480.306c-24.742 0-44.8 20.058-44.8 44.8v268.8c0 24.742 20.058 44.8 44.8 44.8s44.8-20.058 44.8-44.8v-268.8c0-24.742-20.058-44.8-44.8-44.8z" />
<glyph unicode="&#xe90c;" glyph-name="fullscreen" d="M121.92 57.918c-17.496 17.498-17.496 45.862 0 63.36l281.919 281.28c17.495 17.496 45.224 17.496 62.72 0s18.129-45.224 0.634-62.72l-281.916-281.92c-17.496-17.491-45.861-17.491-63.357 0zM422.398 44.798c0-24.742-20.058-44.8-44.8-44.8h-268.8c-24.742 0-44.8 20.058-44.8 44.8s20.058 44.8 44.8 44.8h268.8c24.742 0 44.8-20.058 44.8-44.8zM108.798-0.002c-24.742 0-44.8 20.058-44.8 44.8v268.8c0 24.742 20.058 44.8 44.8 44.8s44.801-20.058 44.801-44.8v-268.8c0-24.742-20.058-44.8-44.8-44.8zM946.881 882.881c17.491-17.496 17.491-45.861 0-63.357l-326.72-326.092c-17.496-17.496-45.224-17.494-62.72 0.001s-17.496 45.869 0 63.365l326.080 326.083c17.498 17.495 45.862 17.495 63.36 0zM601.601 851.202c0 24.742 20.058 44.8 44.8 44.8h268.8c24.742 0 44.8-20.058 44.8-44.8s-20.058-44.8-44.8-44.8h-268.8c-24.742 0-44.8 20.058-44.8 44.8zM915.201 896.002c24.742 0 44.8-20.058 44.8-44.8v-268.8c0-24.742-20.058-44.8-44.8-44.8s-44.8 20.058-44.8 44.8v268.8c0 24.742 20.058 44.8 44.8 44.8z" />
<glyph unicode="&#xe90d;" glyph-name="heading" d="M224 480c0 17.673 14.327 32 32 32h512c17.67 0 32-14.327 32-32v-64c0-17.673-14.33-32-32-32h-512c-17.673 0-32 14.327-32 32v64zM672 800c0 17.673 14.33 32 32 32h64c17.67 0 32-14.327 32-32v-704c0-17.67-14.33-32-32-32h-64c-17.67 0-32 14.33-32 32v704zM224 800c0 17.673 14.327 32 32 32h64c17.673 0 32-14.327 32-32v-704c0-17.67-14.327-32-32-32h-64c-17.673 0-32 14.33-32 32v704z" />
<glyph unicode="&#xe90e;" glyph-name="image" d="M64 692.364c0 44.986 36.468 81.454 81.455 81.454h733.092c44.986 0 81.453-36.468 81.453-81.454v-488.724c0-44.992-36.467-81.459-81.453-81.459h-733.092c-44.986 0-81.455 36.467-81.455 81.459v488.724zM878.547 692.364h-733.092v-488.724h733.092v488.724zM613.818 593.454l183.27-325.815h-366.543l183.273 325.815zM349.091 471.272l122.182-203.633h-244.364l122.182 203.633z" />
<glyph unicode="&#xe90f;" glyph-name="map" d="M625.953 212.608c-40.75-43.296-81.773-77.939-112.655-101.741-0.435-0.339-0.868-0.672-1.299-1.005-0.431 0.333-0.863 0.666-1.299 1.005-30.881 23.802-71.904 58.445-112.655 101.741-83.741 88.973-154.847 202.124-154.847 324.992 0 148.454 120.346 268.8 268.8 268.8s268.8-120.346 268.8-268.8c0-122.868-71.104-236.019-154.847-324.992zM512 0c0 0 358.4 224 358.4 537.6 0 197.939-160.461 358.4-358.4 358.4s-358.4-160.461-358.4-358.4c0-313.6 358.4-537.6 358.4-537.6zM422.4 537.6c0 49.485 40.115 89.6 89.6 89.6s89.6-40.115 89.6-89.6c0-49.485-40.115-89.6-89.6-89.6s-89.6 40.115-89.6 89.6z" />
<glyph unicode="&#xe910;" glyph-name="newsletter" d="M108.8 784h806.4c24.742 0 44.8-20.058 44.8-44.8v-582.4c0-24.742-20.058-44.8-44.8-44.8h-806.4c-24.742 0-44.8 20.058-44.8 44.8v582.4c0 24.742 20.058 44.8 44.8 44.8zM153.6 638.394v-436.794h716.8v436.811l-331.532-248.649c-15.929-11.946-37.831-11.946-53.76 0l-331.508 248.632zM795.718 694.4h-567.46l283.731-212.798 283.73 212.798z" />
<glyph unicode="&#xe911;" glyph-name="products" d="M882.094 689.696l-346.764 200.056c-14.44 8.331-32.228 8.331-46.669 0l-346.763-200.056c-17.090-9.86-24.803-27.843-23.139-45.036-0.174-1.658-0.263-3.349-0.263-5.072v-395.197c0-16.685 8.906-32.102 23.36-40.442l342.557-197.632c8.933-5.152 18.506-6.976 27.616-6.112 9.093-0.851 18.646 0.973 27.561 6.118l342.554 197.626c14.458 8.339 23.36 23.763 23.36 40.448v395.196c0 1.743-0.090 3.454-0.269 5.131 1.638 17.173-6.074 35.124-23.142 44.972zM511.998 493.42l-270.212 155.888 94.636 54.598 271.503-155.144-95.927-55.341zM693.077 597.886l-271.503 155.145 90.423 52.167 270.213-155.891-89.133-51.421zM554.461 112.915l-0.003 306.867 266.152 153.548v-306.867l-266.148-153.549zM203.397 266.458v306.866l266.151-153.548-0.003-306.86-266.148 153.542z" />
<glyph unicode="&#xe912;" glyph-name="row" d="M864 646.4c3.533 0 6.4-2.865 6.4-6.4v-384c0-3.533-2.867-6.4-6.4-6.4h-704c-3.535 0-6.4 2.867-6.4 6.4v384c0 3.535 2.865 6.4 6.4 6.4h704zM160 736c-53.020 0-96-42.98-96-96v-384c0-53.018 42.98-96 96-96h704c53.018 0 96 42.982 96 96v384c0 53.020-42.982 96-96 96h-704z" />
<glyph unicode="&#xe913;" glyph-name="slider" d="M186.182 162.909c0 44.986 36.468 81.453 81.455 81.453s81.455-36.467 81.455-81.453c0-44.986-36.468-81.453-81.455-81.453s-81.455 36.467-81.455 81.453zM674.912 162.909c0 44.986 36.467 81.453 81.453 81.453s81.453-36.467 81.453-81.453c0-44.986-36.467-81.453-81.453-81.453s-81.453 36.467-81.453 81.453zM430.545 162.909c0 44.986 36.468 81.453 81.455 81.453s81.455-36.467 81.455-81.453c0-44.986-36.468-81.453-81.455-81.453s-81.455 36.467-81.455 81.453zM64 733.090c0 44.986 36.468 81.455 81.455 81.455h733.092c44.986 0 81.453-36.468 81.453-81.455v-325.818c0-44.986-36.467-81.455-81.453-81.455h-733.092c-44.986 0-81.455 36.468-81.455 81.455v325.818zM878.547 733.090h-733.092v-325.818h733.092v325.818z" />
<glyph unicode="&#xe914;" glyph-name="special-characters" d="M90.35 474.351c0 232.87 188.779 421.649 421.649 421.649 232.872 0 421.652-188.779 421.652-421.649 0-158.748-87.731-297.007-217.357-368.936h164.627c29.107 0 52.704-23.597 52.704-52.71 0-29.107-23.597-52.704-52.704-52.704h-316.236l0.020 162.483c149.567 25.094 263.532 155.174 263.532 311.868 0 174.653-141.587 316.237-316.238 316.237-174.653 0-316.237-141.584-316.237-316.237 0-156.693 113.966-286.773 263.531-311.868v-162.483h-316.237c-29.109 0-52.707 23.597-52.707 52.704 0 29.114 23.597 52.71 52.707 52.71h164.644c-129.622 71.93-217.351 210.189-217.351 368.936z" />
<glyph unicode="&#xe915;" glyph-name="tabs" d="M64 692.364c0 44.986 36.468 81.454 81.455 81.454h733.092c44.986 0 81.453-36.468 81.453-81.454v-488.724c0-44.992-36.467-81.459-81.453-81.459h-733.092c-44.986 0-81.455 36.467-81.455 81.459v488.724zM878.547 692.364h-733.092v-488.724h733.092v488.724zM430.545 692.364h448.002v-162.909h-448.002v162.909z" />
<glyph unicode="&#xe916;" glyph-name="text" d="M192 800c0 17.673 14.327 32 32 32h576c17.67 0 32-14.327 32-32v-64c0-17.673-14.33-32-32-32h-576c-17.673 0-32 14.327-32 32v64zM448 800c0 17.673 14.327 32 32 32h64c17.673 0 32-14.327 32-32v-704c0-17.67-14.327-32-32-32h-64c-17.673 0-32 14.33-32 32v704z" />
<glyph unicode="&#xe917;" glyph-name="variable" d="M241.345 750.182c18.436-16.501 20.005-44.824 3.504-63.26-56.778-63.438-91.249-147.101-91.249-238.923s34.471-175.487 91.249-238.924c16.501-18.432 14.932-46.758-3.504-63.258s-46.758-14.931-63.26 3.501c-70.913 79.232-114.086 183.969-114.086 298.681s43.172 219.448 114.086 298.678c16.501 18.436 44.823 20.005 63.26 3.504zM782.656 750.182c18.432 16.501 46.758 14.932 63.258-3.504 70.912-79.23 114.086-183.966 114.086-298.678s-43.174-219.449-114.086-298.681c-16.499-18.432-44.826-20-63.258-3.501-18.438 16.499-20.006 44.826-3.507 63.258 56.781 63.437 91.251 147.103 91.251 238.924s-34.47 175.485-91.251 238.923c-16.499 18.436-14.931 46.758 3.507 63.26zM338.792 658.387c42.855 24.742 97.654 10.059 122.396-32.796l50.802-87.992 50.802 87.992c24.742 42.854 79.538 57.538 122.399 32.796l-121.47-210.388 121.47-210.386c-42.861-24.742-97.656-10.061-122.399 32.794l-50.802 87.993-50.803-87.993c-24.742-42.854-79.54-57.536-122.396-32.794l121.468 210.386-121.468 210.388z" />
<glyph unicode="&#xe918;" glyph-name="widgets" d="M493.279 712.55c-34.766-34.766-34.766-91.133 0-125.9l157.374-157.375c34.765-34.766 91.136-34.766 125.901 0l157.376 157.375c34.765 34.766 34.765 91.133 0 125.9l-157.376 157.375c-34.765 34.766-91.136 34.766-125.901 0l-157.374-157.375zM556.229 649.601l157.374 157.375 157.376-157.375-157.376-157.375-157.374 157.375zM153.597 896c-49.485 0-89.6-40.115-89.6-89.6v-223.999c0-49.485 40.115-89.6 89.6-89.6h223.999c49.485 0 89.6 40.115 89.6 89.6v223.999c0 49.485-40.115 89.6-89.6 89.6h-223.999zM153.597 806.4h223.999v-223.999h-223.999v223.999zM153.597 403.199c-49.485 0-89.6-40.115-89.6-89.599v-224c0-49.485 40.115-89.6 89.6-89.6h223.999c49.485 0 89.6 40.115 89.6 89.6v224c0 49.484-40.115 89.599-89.6 89.599h-223.999zM153.597 313.6h223.999v-224h-223.999v224zM556.787 313.6c0 49.484 40.115 89.599 89.597 89.599h224c49.485 0 89.6-40.116 89.6-89.599v-224c0-49.485-40.115-89.6-89.6-89.6h-224c-49.482 0-89.597 40.115-89.597 89.6v224zM870.384 313.6h-224v-224h224v224z" />
<glyph unicode="&#xe919;" glyph-name="add" d="M64 470.4c0 24.742 20.058 44.8 44.8 44.8h806.4c24.742 0 44.8-20.058 44.8-44.8v-44.8c0-24.742-20.058-44.8-44.8-44.8h-806.4c-24.742 0-44.8 20.058-44.8 44.8v44.8zM444.8 851.2c0 24.742 20.058 44.8 44.8 44.8h44.8c24.742 0 44.8-20.058 44.8-44.8v-806.4c0-24.742-20.058-44.8-44.8-44.8h-44.8c-24.742 0-44.8 20.058-44.8 44.8v806.4z" />
<glyph unicode="&#xe91a;" glyph-name="text-center" d="M153.6 179.2c0 24.742 20.058 44.8 44.8 44.8h627.2c24.742 0 44.8-20.058 44.8-44.8v-44.8c0-24.742-20.058-44.8-44.8-44.8h-627.2c-24.742 0-44.8 20.058-44.8 44.8v44.8zM265.6 470.4c0 24.742 20.058 44.8 44.8 44.8h403.2c24.742 0 44.8-20.058 44.8-44.8v-44.8c0-24.742-20.058-44.8-44.8-44.8h-403.2c-24.742 0-44.8 20.058-44.8 44.8v44.8zM64 761.6c0 24.742 20.058 44.8 44.8 44.8h806.4c24.742 0 44.8-20.058 44.8-44.8v-44.8c0-24.742-20.058-44.8-44.8-44.8h-806.4c-24.742 0-44.8 20.058-44.8 44.8v44.8z" />
<glyph unicode="&#xe91b;" glyph-name="text-left" d="M64 179.2c0 24.742 20.058 44.8 44.8 44.8h627.2c24.742 0 44.8-20.058 44.8-44.8v-44.8c0-24.742-20.058-44.8-44.8-44.8h-627.2c-24.742 0-44.8 20.058-44.8 44.8v44.8zM64 470.4c0 24.742 20.058 44.8 44.8 44.8h403.2c24.742 0 44.8-20.058 44.8-44.8v-44.8c0-24.742-20.058-44.8-44.8-44.8h-403.2c-24.742 0-44.8 20.058-44.8 44.8v44.8zM64 761.6c0 24.742 20.058 44.8 44.8 44.8h806.4c24.742 0 44.8-20.058 44.8-44.8v-44.8c0-24.742-20.058-44.8-44.8-44.8h-806.4c-24.742 0-44.8 20.058-44.8 44.8v44.8z" />
<glyph unicode="&#xe91c;" glyph-name="text-right" d="M243.2 179.2c0 24.742 20.058 44.8 44.8 44.8h627.2c24.742 0 44.8-20.058 44.8-44.8v-44.8c0-24.742-20.058-44.8-44.8-44.8h-627.2c-24.742 0-44.8 20.058-44.8 44.8v44.8zM467.2 470.4c0 24.742 20.058 44.8 44.8 44.8h403.2c24.742 0 44.8-20.058 44.8-44.8v-44.8c0-24.742-20.058-44.8-44.8-44.8h-403.2c-24.742 0-44.8 20.058-44.8 44.8v44.8zM64 761.6c0 24.742 20.058 44.8 44.8 44.8h806.4c24.742 0 44.8-20.058 44.8-44.8v-44.8c0-24.742-20.058-44.8-44.8-44.8h-806.4c-24.742 0-44.8 20.058-44.8 44.8v44.8z" />
<glyph unicode="&#xe91d;" glyph-name="video" d="M64 692.364c0 44.986 36.468 81.454 81.455 81.454h733.092c44.986 0 81.453-36.468 81.453-81.454v-488.724c0-44.992-36.467-81.459-81.453-81.459h-733.092c-44.986 0-81.455 36.467-81.455 81.459v488.724zM878.547 692.364h-733.092v-488.724h733.092v488.724zM397.972 545.011c0 30.276 31.861 49.967 58.941 36.428l194.025-97.011c30.016-15.009 30.016-57.846 0-72.856l-194.025-97.008c-27.080-13.542-58.941 6.149-58.941 36.425v194.022z" />
<glyph unicode="&#xe91e;" glyph-name="grid-size" d="M298.667 448c0 47.128-38.205 85.333-85.334 85.333s-85.333-38.205-85.333-85.333c0-47.128 38.205-85.333 85.333-85.333s85.334 38.205 85.334 85.333zM512 533.333c47.128 0 85.333-38.205 85.333-85.333s-38.205-85.333-85.333-85.333c-47.128 0-85.333 38.205-85.333 85.333s38.205 85.333 85.333 85.333zM810.669 533.333c47.123 0 85.331-38.205 85.331-85.333s-38.208-85.333-85.331-85.333c-47.13 0-85.338 38.205-85.338 85.333s38.208 85.333 85.338 85.333z" />
<glyph unicode="&#xe91f;" glyph-name="show" d="M871.154 448.001c-60.954 137.893-198.835 234.094-359.155 234.094-160.322 0-298.204-96.201-359.155-234.094 60.95-137.891 198.833-234.096 359.156-234.096 160.326 0 298.207 96.205 359.155 234.096zM511.999 769.745c198.669 0 369.146-120.781 442.15-292.968 7.802-18.386 7.802-39.167 0-57.553-73.005-172.187-243.482-292.968-442.15-292.968-198.671 0-369.148 120.781-442.154 292.968-7.795 18.385-7.795 39.167 0 57.553 73.007 172.187 243.484 292.968 442.154 292.968zM345.287 448.004c0 92.318 74.769 167.156 167.002 167.156s167-74.838 167-167.156c0-92.318-74.767-167.156-167-167.156s-167.002 74.838-167.002 167.156zM512.289 528.487c-44.408 0-80.408-36.033-80.408-80.483s36-80.483 80.408-80.483c44.408 0 80.408 36.033 80.408 80.483s-36 80.483-80.408 80.483z" />
<glyph unicode="&#xe920;" glyph-name="hide" d="M75.952 822.955c15.937 15.938 41.777 15.938 57.715 0l100.835-100.835 0.134 0.095 63.058-63.058-0.138-0.090 76.504-76.504 0.092 0.136 63.635-63.635-0.066-0.163 104.779-104.779 0.163 0.067 63.634-63.635-0.136-0.093 63.048-63.050 0.16 0.070 65.626-65.632-0.147-0.077 91.014-91.014c15.942-15.936 15.942-41.779 0-57.715-15.936-15.936-41.773-15.936-57.715 0l-115.027 115.034c-44.621-13.715-92.008-21.094-141.119-21.094-198.671 0-369.148 120.781-442.154 292.968-7.795 18.386-7.795 39.167 0 57.553 24.189 57.049 59.078 108.456 102.146 151.695l-96.039 96.039c-15.938 15.938-15.938 41.778 0 57.715zM233.939 607.252c-33.809-33.959-61.449-74.076-81.096-118.524 60.95-137.894 198.833-234.097 359.156-234.097 23.396 0 46.314 2.048 68.584 5.978l-61.119 61.118c-2.38-0.101-4.772-0.152-7.176-0.152-92.233 0-167.002 74.838-167.002 167.156 0 2.355 0.049 4.698 0.145 7.028l-111.492 111.492zM307.47 764.811l66.838-66.839c42.845 16.066 89.243 24.851 137.69 24.851 160.32 0 298.202-96.201 359.155-234.094-28.179-63.748-72.794-118.587-128.474-159.128l62.579-62.579c64.813 50.118 116.467 116.452 148.89 192.93 7.802 18.386 7.802 39.167 0 57.553-73.005 172.187-243.482 292.968-442.15 292.968-73.151 0-142.48-16.375-204.529-45.661zM660.556 411.728c11.968 23.046 18.733 49.234 18.733 77.004 0 92.318-74.767 167.157-167 167.157-27.8 0-54.013-6.799-77.071-18.826l68.319-68.319c2.874 0.311 5.794 0.471 8.751 0.471 44.408 0 80.408-36.034 80.408-80.483 0-2.934-0.157-5.832-0.463-8.685l68.322-68.319z" />
<glyph unicode="&#xe921;" glyph-name="mobile" d="M226.909 814.545c0 44.986 36.468 81.455 81.455 81.455h407.274c44.986 0 81.453-36.468 81.453-81.455v-733.092c0-44.986-36.467-81.453-81.453-81.453h-407.274c-44.986 0-81.455 36.467-81.455 81.453v733.092zM715.637 814.545h-407.274v-733.092h407.274v733.092zM430.545 692.364c0 22.493 18.234 40.728 40.727 40.728h81.455c22.493 0 40.727-18.234 40.727-40.728s-18.234-40.727-40.727-40.727h-81.455c-22.493 0-40.727 18.234-40.727 40.727z" />
</font>
</defs>
</svg>
