<?xml version="1.0" standalone="no"?>
<!DOCTYPE svg PUBLIC "-//W3C//DTD SVG 1.1//EN" "http://www.w3.org/Graphics/SVG/1.1/DTD/svg11.dtd" >
<svg xmlns="http://www.w3.org/2000/svg">
<metadata>Generated by IcoMoon</metadata>
<defs>
<font id="admin-icons" horiz-adv-x="1024">
<font-face units-per-em="1024" ascent="960" descent="-64" />
<missing-glyph horiz-adv-x="1024" />
<glyph unicode="&#x20;" horiz-adv-x="512" d="" />
<glyph unicode="&#xe600;" glyph-name="account" d="M848.976 152.781c-82.112-93.653-202.637-152.781-336.977-152.781-134.337 0-254.865 59.166-336.977 152.823-14.543 16.585-21.899 38.353-19.836 60.314 2.51 26.722 7.952 52.587 16.003 77.274 7.211 22.114 24.014 39.603 45.198 49.207 90.119 40.841 190.19 63.582 295.573 63.582 105.421 0 205.53-22.758 295.68-63.633 21.184-9.604 37.982-27.098 45.188-49.212 8.043-24.683 13.478-50.551 15.987-77.261 2.061-21.965-5.295-43.729-19.84-60.314zM248.828 234.274c-3.272-15.744 1.971-32.171 13.504-43.375 64.622-62.784 152.649-101.299 249.666-101.299 97.033 0 185.058 38.494 249.668 101.261 11.533 11.204 16.777 27.627 13.508 43.371v0c-3.302 15.906-14.763 28.489-29.841 34.539-72.055 28.907-150.775 44.83-233.374 44.83-82.569 0-161.253-15.91-233.283-44.791-15.080-6.046-26.543-18.628-29.85-34.534v0zM511.935 627.2c-49.485 0-89.6 40.115-89.6 89.6s40.116 89.6 89.6 89.6c49.485 0 89.6-40.115 89.6-89.6s-40.115-89.6-89.6-89.6zM511.935 537.6c98.97 0 179.2 80.23 179.2 179.2s-80.23 179.2-179.2 179.2c-98.97 0-179.2-80.23-179.2-179.2s80.23-179.2 179.2-179.2z" />
<glyph unicode="&#xe601;" glyph-name="arrowdown" d="M602.509 118.556l341.099 545.753c44.429 71.090-6.677 163.303-90.513 163.303h-682.19c-83.833 0-134.942-92.213-90.511-163.303l341.096-545.753c41.806-66.889 139.214-66.889 181.019 0z" />
<glyph unicode="&#xe602;" glyph-name="cms" d="M64 806.4c0 49.485 40.115 89.6 89.6 89.6h716.8c49.485 0 89.6-40.115 89.6-89.6v-716.8c0-49.485-40.115-89.6-89.6-89.6h-716.8c-49.485 0-89.6 40.115-89.6 89.6v716.8zM153.6 89.6h313.6v716.8h-313.6v-716.8zM556.8 806.4v-313.6h313.6v313.6h-313.6zM870.4 403.2h-313.6v-313.6h313.6v313.6z" />
<glyph unicode="&#xe603;" glyph-name="customers" d="M959.228 265.792c-1.361 29.833-6.775 58.62-15.701 85.811-6.383 19.443-21.158 34.837-39.791 43.311-58.313 26.517-121.267 44.608-187.311 52.723-13.952 1.711-28.045 2.978-42.257 3.789-8.222 0.465-16.482 0.781-24.781 0.939l-1.417 0.021c-3.661 0.064-7.326 0.094-10.999 0.094-20.258 0-34.59-21.171-19.396-34.569 4.757-4.194 10.197-7.509 16.277-9.651l3.119-1.105c9.276-3.315 18.47-6.814 27.575-10.487 11.388-4.591 22.63-9.459 33.728-14.596 9.498-4.395 18.889-8.986 28.164-13.769l14.212-7.326c9.092-4.689 16.311-12.352 20.446-21.713l6.46-14.622c17.259-39.061 28.646-81.263 33.097-125.38l0.239-2.411c1.195-12.604 1.83-25.361 1.869-38.242l0.004-1.361v-15.117c0-6.78 7.39-13.628 13.461-10.611 6.75 3.358 13.393 6.895 19.921 10.611 8.354 4.753 16.521 9.796 24.486 15.117 2.018 1.348 4.028 2.714 6.020 4.1 1.092 0.759 2.185 1.523 3.268 2.291 30.14 21.363 57.216 46.767 80.444 75.413 6.11 7.539 9.301 17.041 8.862 26.739zM829.026 351.799l-0.431 0.973c16.115-5.662 31.902-12.019 47.322-19.029 1.493-0.678 2.505-1.493 3.089-2.121 0.546-0.593 0.674-0.981 0.674-0.981 5.995-18.257 9.993-37.457 11.716-57.353-9.097-10.534-18.837-20.493-29.154-29.82-6.835 37.751-18.078 74.069-33.216 108.331zM798.225 734.72c0 89.073-72.205 161.28-161.28 161.28-21.5 0-42.018-4.207-60.774-11.843-26.935-10.965-24.435-46.080-4.467-67.22 42.679-45.181 68.843-106.125 68.843-173.18 0-1.018-0.004-2.034-0.017-3.049v-0.16c-0.171-13.447-1.387-26.64-3.584-39.501-1.233-7.249-2.778-14.391-4.621-21.415-0.811-3.096 1.421-6.191 4.621-6.191 5.406 0 10.743 0.265 16.009 0.784 16.102 1.586 31.505 5.54 45.862 11.509 1.335 0.555 2.658 1.126 3.972 1.715 56.252 25.187 95.437 81.653 95.437 147.272zM731.025 734.72c0-24.369-9.263-46.573-24.461-63.284-4.988 57.983-25.489 111.589-57.28 156.562 46.131-6.043 81.741-45.501 81.741-93.278zM547.341 645.12c0 89.073-72.209 161.28-161.28 161.28-89.073 0-161.28-72.207-161.28-161.28s72.207-161.28 161.28-161.28c89.071 0 161.28 72.207 161.28 161.28zM457.741 645.12c0-39.588-32.092-71.68-71.68-71.68s-71.68 32.092-71.68 71.68c0 39.588 32.092 71.68 71.68 71.68s71.68-32.092 71.68-71.68zM119.414 305.357c-18.633-8.469-33.411-23.859-39.8-43.302-7.437-22.635-12.437-46.374-14.689-70.908-1.775-19.332 4.695-38.477 17.468-53.094 73.91-84.587 182.579-138.052 303.728-138.052s229.816 53.431 303.727 138.014c12.774 14.618 19.243 33.762 17.468 53.094-2.249 24.525-7.245 48.265-14.673 70.895-6.387 19.443-21.163 34.837-39.791 43.311-81.306 36.971-171.631 57.566-266.768 57.566-95.099 0-185.392-20.578-266.669-57.523zM386.12 89.6c-91.404 0-173.616 39.031-231.065 101.611 1.542 12.070 4.004 23.825 7.31 35.209 68.335 30.106 143.955 46.861 223.718 46.861 79.794 0 155.442-16.768 223.799-46.899 3.302-11.379 5.764-23.138 7.305-35.209-57.438-62.558-139.648-101.572-231.066-101.572z" />
<glyph unicode="&#xe604;" glyph-name="dashboard" d="M662.046 782.231c-48.508 17.149-99.814 25.934-151.723 25.74-83.319-0.311-164.916-23.74-235.707-67.679s-127.997-106.664-165.25-181.19c-37.253-74.525-53.090-157.929-45.748-240.925 6.519-73.698 31.089-144.508 71.352-206.238 14.16-21.713 43.24-27.836 64.951-13.675s27.832 43.243 13.671 64.951c-31.866 48.858-51.313 104.9-56.473 163.234-5.81 65.685 6.724 131.695 36.209 190.682s74.762 108.631 130.79 143.407c56.029 34.777 120.609 53.32 186.555 53.566 41.084 0.153 81.69-6.799 120.081-20.372 24.439-8.64 51.255 4.167 59.895 28.605s-4.169 51.253-28.604 59.893zM937.126 505.788c-8.521 24.482-35.273 37.42-59.75 28.9-24.482-8.518-37.423-35.27-28.902-59.753 16.226-46.622 22.643-96.282 18.633-145.839-4.873-60.173-24.947-118.029-58.219-168.188-14.327-21.602-8.431-50.726 13.167-65.054 21.602-14.327 50.726-8.435 65.058 13.167 42.035 63.373 67.401 136.474 73.553 212.501 5.069 62.613-3.042 125.359-23.539 184.265zM600.939 380.407l235.447 235.45c18.33 18.328 18.33 48.045 0 66.374s-48.043 18.329-66.372 0l-235.452-235.451c-7.219 1.826-14.775 2.795-22.562 2.795-50.662 0-91.733-41.071-91.733-91.733s41.071-91.733 91.733-91.733c50.662 0 91.733 41.071 91.733 91.733 0 7.787-0.969 15.347-2.795 22.566z" />
<glyph unicode="&#xe605;" glyph-name="filter" d="M438.65 423.419c8.9-14.242 13.619-30.694 13.619-47.488v-286.332h119.467v286.34c0 16.794 4.719 33.246 13.619 47.488l234.313 374.901c0.947 1.513 0.951 2.246 0.956 2.553 0.004 0.602-0.166 1.631-0.815 2.8-0.644 1.169-1.425 1.856-1.937 2.171-0.265 0.16-0.892 0.547-2.675 0.547h-606.391c-1.783 0-2.408-0.384-2.67-0.544-0.513-0.315-1.296-1.004-1.944-2.173s-0.817-2.193-0.813-2.795c0.003-0.307 0.009-1.045 0.954-2.557l234.318-374.91zM362.67 44.799v331.132l-234.319 374.91c-39.494 63.191 5.936 145.158 80.454 145.158h606.391c74.517 0 119.949-81.967 80.452-145.158l-234.313-374.901v-331.14c0-24.742-20.058-44.8-44.8-44.8h-209.066c-24.742 0-44.8 20.058-44.8 44.8z" />
<glyph unicode="&#xe606;" glyph-name="logo" d="M0 497.335l341.363 197.064 170.611-98.532 170.705 98.532 341.321-197.064-0.017-197.065-170.645-98.526-170.709 98.526-170.598-98.526-170.705 98.577-170.653-98.586-170.672 98.586v197.013z" />
<glyph unicode="&#xe607;" glyph-name="notification" d="M828.992 582.398c0 173.197-141.82 313.602-316.766 313.602s-316.768-140.405-316.768-313.602v-313.603h-45.248c-24.992 0-45.252-20.058-45.252-44.8s20.26-44.8 45.252-44.8h724.042c24.99 0 45.252 20.058 45.252 44.8s-20.262 44.8-45.252 44.8h-45.261v313.603zM738.487 268.796h-452.524v313.603c0 123.712 101.301 224.002 226.262 224.002s226.261-100.29 226.261-224.002v-313.603zM359.547 26.138c-40.921 14.524-26.78 63.462 16.689 63.462h271.986c43.469 0 57.604-48.939 16.687-63.462-47.697-16.922-99.102-26.138-152.683-26.138-53.577 0-104.98 9.216-152.679 26.138z" />
<glyph unicode="&#xe608;" glyph-name="product" d="M489.614 890.004c13.854 7.994 30.921 7.994 44.774 0l349.436-201.603c13.867-8.001 22.413-22.795 22.413-38.805v-403.197c0-16.013-8.546-30.805-22.413-38.805l-349.44-201.6c-13.854-7.991-30.921-7.991-44.774 0l-349.436 201.6c-13.868 8-22.412 22.797-22.412 38.805v403.198c0 16.010 8.544 30.804 22.412 38.805l349.44 201.602zM207.361 572.029v-299.757l259.835-149.905-0.004 299.759-259.831 149.903zM556.797 122.367l259.84 149.905v299.758l-259.844-149.908 0.004-299.755zM511.992 499.72l92.386 53.297-259.788 149.876-92.381-53.297 259.782-149.877zM434.241 754.615l259.785-149.877 77.76 44.86-259.785 149.88-77.76-44.863z" />
<glyph unicode="&#xe609;" glyph-name="promotions" d="M402.122 380.286l289.073-144.538v471.648l-295.818-147.91h-241.778v-179.2h248.524zM366.067 127.661c6.404-23.898-7.779-48.461-31.678-54.865s-48.465 7.778-54.868 31.676l-49.896 186.214h-76.025c-49.484 0-89.6 40.115-89.6 89.6v179.2c0 49.484 40.115 89.6 89.6 89.6h220.626l341.738 170.868c29.786 14.894 64.832-6.767 64.832-40.070v-616.622c0-33.301-35.046-54.963-64.832-40.068l-334.992 167.492h-58.586l43.683-163.025zM870.399 335.255c0-43.034 48.943-57.033 63.458-16.525 16.922 47.223 26.142 98.112 26.142 151.155s-9.22 103.932-26.142 151.154c-14.515 40.512-63.458 26.512-63.458-16.522v-269.263z" />
<glyph unicode="&#xe60a;" glyph-name="reports" d="M691.198 896h179.2c49.485 0 89.6-40.115 89.6-89.6v-716.8c0-49.485-40.115-89.6-89.6-89.6h-179.2c-0.090 0-0.179 0-0.273 0h-537.323c-49.484 0-89.6 40.115-89.6 89.6v179.2c0 49.485 40.115 89.6 89.6 89.6h179.194v179.2c0 49.485 40.115 89.6 89.6 89.6h179.198c0.004 0 0.004 0 0.009 0v179.2c0 49.485 40.115 89.6 89.596 89.6zM780.806 89.6h89.591v716.8h-179.2v-716.8h89.609zM601.593 537.6h-179.198v-267.87l0.005-0.93v-179.2h179.193v448zM332.796 89.6v179.2h-179.194v-179.2h179.194z" />
<glyph unicode="&#xe60b;" glyph-name="sales" d="M332.798 605.598v-135.996c34.333-4.911 61.49-32.068 66.405-66.398h404.791c4.915 34.33 32.073 61.487 66.406 66.398v135.996c-34.338 4.911-61.495 32.070-66.406 66.406h-404.79c-4.911-34.336-32.070-61.495-66.406-66.406zM960 683.204v-324.8c0-24.742-20.058-44.8-44.8-44.8h-627.202c-24.742 0-44.8 20.058-44.8 44.8v358.4c0 24.742 20.058 44.8 44.8 44.8h627.202c24.742 0 44.8-20.058 44.8-44.8v-33.6zM153.6 537.596c0 24.742-20.058 44.8-44.8 44.8s-44.8-20.058-44.8-44.8v-313.6c0-49.485 40.115-89.6 89.6-89.6h582.4c24.742 0 44.8 20.058 44.8 44.8s-20.058 44.8-44.8 44.8l-537.598 0.009c-24.742 0-44.8 20.058-44.8 44.8 0 1.092 0.039 2.176 0.116 3.247h-0.118v265.545zM601.6 445.508c49.485 0 89.6 40.115 89.6 89.6s-40.115 89.6-89.6 89.6c-49.485 0-89.6-40.115-89.6-89.6s40.115-89.6 89.6-89.6z" />
<glyph unicode="&#xe60c;" glyph-name="search" d="M724.211 518.737c0 156.267-126.682 282.947-282.948 282.947s-282.947-126.68-282.947-282.947c0-156.267 126.68-282.948 282.947-282.948s282.948 126.682 282.948 282.948zM672.602 220.702c-63.885-49.66-144.158-79.228-231.339-79.228-208.357 0-377.263 168.905-377.263 377.263 0 208.357 168.906 377.263 377.263 377.263 208.358 0 377.263-168.906 377.263-377.263 0-87.181-29.572-167.458-79.232-231.343l206.891-206.886c18.411-18.419 18.411-48.277 0-66.697-18.419-18.411-48.277-18.411-66.697 0l-206.886 206.891z" />
<glyph unicode="&#xe60d;" glyph-name="stores" d="M153.605 537.596c24.742 0 44.8-20.058 44.8-44.8v-403.191h627.192v403.191c0 24.742 20.053 44.8 44.796 44.8s44.8-20.058 44.8-44.8v-403.191c0-49.485-40.115-89.6-89.596-89.6h-627.192c-49.484 0-89.599 40.115-89.599 89.6v403.191c0 24.742 20.057 44.8 44.799 44.8zM332.802 134.4c-24.742 0-44.799 20.058-44.799 44.8v134.4c0 24.742 20.057 44.8 44.799 44.8s44.799-20.058 44.8-44.8v-134.4c0-24.742-20.058-44.8-44.8-44.8zM372.045 448.341c-24.551 3.072-41.966 25.459-38.897 50.014l44.799 358.392c3.069 24.551 25.459 41.966 50.009 38.897s41.967-25.459 38.899-50.010l-44.8-358.394c-3.069-24.55-25.459-41.967-50.010-38.899zM651.956 448.341c-24.555-3.068-46.942 14.349-50.014 38.899l-44.796 358.394c-3.072 24.551 14.345 46.941 38.895 50.010s46.942-14.346 50.010-38.897l44.8-358.392c3.068-24.555-14.345-46.942-38.895-50.014zM108.806 671.993c24.742 0 44.799-20.057 44.799-44.799 0-18.267 3.243-36.264 9.455-52.927 2.066-5.543 4.444-10.891 7.107-16.015 5.333-10.263 11.796-19.6 19.176-27.799 11.063-12.292 23.939-21.76 37.753-28.122 13.796-6.349 28.388-9.536 42.988-9.536s29.192 3.187 42.988 9.536c7.206 3.319 14.15 7.475 20.716 12.442 6.029 4.557 11.742 9.796 17.038 15.68 21.46 23.844 58.973 23.844 80.434 0 5.295-5.884 11.008-11.123 17.037-15.68 6.566-4.966 13.508-9.122 20.715-12.442 13.798-6.349 28.39-9.536 42.991-9.536s29.193 3.187 42.987 9.536c7.206 3.319 14.148 7.475 20.715 12.442 6.029 4.557 11.742 9.796 17.037 15.68 21.461 23.844 58.974 23.844 80.435 0 5.295-5.884 11.008-11.123 17.037-15.68 6.566-4.966 13.513-9.122 20.715-12.442 13.798-6.349 28.39-9.536 42.991-9.536s29.193 3.187 42.987 9.536c13.815 6.362 26.692 15.829 37.756 28.122 7.377 8.198 13.841 17.535 19.174 27.799 2.662 5.124 5.039 10.473 7.104 16.015 6.212 16.663 9.455 34.66 9.455 52.927 0 24.742 20.058 44.799 44.8 44.799s44.8-20.057 44.8-44.799c0-28.798-5.099-57.405-15.1-84.225-3.332-8.941-7.189-17.636-11.554-26.029-8.73-16.802-19.49-32.431-32.085-46.426-18.884-20.988-41.57-37.922-66.889-49.574-25.34-11.661-52.689-17.745-80.448-17.745s-55.113 6.084-80.448 17.745c-13.197 6.076-25.681 13.585-37.286 22.357-1.084 0.815-2.159 1.647-3.226 2.487-1.067-0.841-2.142-1.668-3.221-2.487-11.605-8.772-24.094-16.282-37.286-22.357-25.34-11.661-52.693-17.745-80.448-17.745-27.759 0-55.113 6.084-80.448 17.745-13.197 6.076-25.682 13.585-37.286 22.357-1.083 0.815-2.158 1.647-3.226 2.487-1.067-0.841-2.142-1.668-3.224-2.487-11.604-8.772-24.090-16.282-37.286-22.357-25.338-11.661-52.69-17.745-80.448-17.745s-55.11 6.084-80.448 17.745c-25.321 11.652-48.003 28.587-66.892 49.574-12.595 13.995-23.353 29.619-32.084 46.426-4.362 8.393-8.222 17.088-11.555 26.029-9.998 26.82-15.098 55.427-15.098 84.225 0 24.742 20.057 44.799 44.799 44.799zM191.739 852.49c16.192 26.988 45.357 43.5 76.83 43.5h486.863c31.471 0 60.638-16.513 76.83-43.5l121.348-202.246c12.727-21.216 5.85-48.735-15.369-61.464-21.214-12.73-48.734-5.85-61.461 15.366l-121.348 202.246h-486.863l-121.348-202.246c-12.73-21.216-40.248-28.096-61.464-15.366s-28.096 40.248-15.366 61.464l121.348 202.246z" />
<glyph unicode="&#xe60f;" glyph-name="views" d="M922.462 448.003c-69.658 157.676-227.238 267.68-410.462 267.68-183.225 0-340.805-110.004-410.463-267.68 69.657-157.679 227.238-267.686 410.463-267.686 183.228 0 340.804 110.007 410.462 267.686zM512 815.908c227.051 0 421.879-138.11 505.318-335.001 8.909-21.026 8.909-44.787 0-65.813-83.435-196.89-278.263-335.002-505.318-335.002-227.051 0-421.882 138.112-505.318 335.002-8.909 21.026-8.909 44.787 0 65.813 83.436 196.891 278.267 335.001 505.318 335.001zM321.472 448.007c0 105.562 85.45 191.138 190.861 191.138 105.408 0 190.857-85.577 190.857-191.138 0-105.566-85.449-191.142-190.857-191.142-105.411 0-190.861 85.577-190.861 191.142zM512.333 540.035c-50.752 0-91.897-41.203-91.897-92.028 0-50.829 41.145-92.032 91.897-92.032s91.895 41.203 91.895 92.032c0 50.825-41.143 92.028-91.895 92.028z" />
<glyph unicode="&#xe610;" glyph-name="system-config" d="M381.094 797.092c0 72.299 58.609 130.909 130.908 130.909s130.91-58.61 130.91-130.909v-25.386c30.34-12.279 58.539-28.688 83.908-48.516l22.046 12.728c62.613 36.149 142.677 14.697 178.825-47.916 36.151-62.612 14.699-142.675-47.915-178.825l-22.020-12.715c2.206-15.855 3.341-32.034 3.341-48.461s-1.135-32.606-3.341-48.461l22.020-12.715c62.613-36.147 84.066-116.211 47.915-178.825-36.147-62.613-116.211-84.066-178.825-47.915l-22.046 12.727c-25.37-19.831-53.568-36.237-83.908-48.516v-25.387c0-72.299-58.611-130.91-130.91-130.91s-130.908 58.611-130.908 130.91v25.387c-30.338 12.279-58.539 28.689-83.908 48.521l-22.054-12.732c-62.613-36.151-142.676-14.699-178.825 47.915s-14.697 142.677 47.916 178.825l22.034 12.723c-2.204 15.851-3.341 32.030-3.341 48.452s1.137 32.602 3.341 48.452l-22.033 12.723c-62.613 36.149-84.066 116.212-47.916 178.825s116.212 84.065 178.825 47.916l22.054-12.733c25.37 19.829 53.571 36.239 83.908 48.519v25.389zM512.002 840.728c-24.098 0-43.635-19.537-43.635-43.636v-56.287c0-19.305-12.685-36.316-31.189-41.823-39.757-11.833-75.61-32.889-105.055-60.742-14.022-13.263-35.090-15.74-51.805-6.090l-48.821 28.187c-20.871 12.050-47.558 4.899-59.608-15.972s-4.899-47.558 15.972-59.608l48.761-28.152c16.701-9.643 25.092-29.107 20.638-47.867-4.617-19.452-7.070-39.778-7.070-60.736s2.454-41.284 7.070-60.736c4.454-18.761-3.937-38.225-20.638-47.868l-48.761-28.151c-20.871-12.049-28.022-38.737-15.972-59.61 12.050-20.868 38.737-28.019 59.608-15.97l48.821 28.186c16.715 9.651 37.784 7.177 51.805-6.089 29.445-27.853 65.298-48.909 105.056-60.745 18.505-5.504 31.189-22.515 31.189-41.822v-56.286c0-24.102 19.537-43.635 43.635-43.635 24.102 0 43.639 19.533 43.639 43.635v56.286c0 19.302 12.685 36.314 31.189 41.822 39.757 11.831 75.61 32.887 105.054 60.74 14.025 13.261 35.093 15.74 51.806 6.089l48.811-28.181c20.873-12.049 47.561-4.898 59.61 15.97 12.049 20.873 4.898 47.561-15.97 59.61l-48.751 28.143c-16.7 9.643-25.092 29.107-20.638 47.872 4.617 19.452 7.074 39.778 7.074 60.74s-2.458 41.293-7.074 60.74c-4.454 18.765 3.938 38.228 20.638 47.871l48.751 28.145c20.868 12.049 28.019 38.737 15.97 59.608s-38.737 28.022-59.61 15.972l-48.811-28.182c-16.717-9.65-37.781-7.174-51.806 6.089-29.444 27.853-65.297 48.907-105.054 60.739-18.505 5.507-31.189 22.518-31.189 41.824v56.285c0 24.099-19.537 43.636-43.639 43.636zM512.024 491.636c-24.102 0-43.639-19.537-43.639-43.635s19.537-43.635 43.639-43.635c24.098 0 43.635 19.537 43.635 43.635s-19.537 43.635-43.635 43.635zM381.113 448.001c0 72.299 58.612 130.909 130.911 130.909s130.906-58.61 130.906-130.909c0-72.299-58.607-130.91-130.906-130.91s-130.911 58.611-130.911 130.91z" />
<glyph unicode="&#xe611;" glyph-name="home" d="M565.76 878.080l331.52-248.64c13.342-10.005 19.511-26.022 17.574-41.463 0.226-1.827 0.341-3.689 0.341-5.577v-492.8c0-49.485-40.115-89.6-89.6-89.6h-627.198c-49.485 0-89.6 40.115-89.6 89.6v492.8c0 1.896 0.118 3.764 0.346 5.599-1.93 15.434 4.242 31.441 17.576 41.441l331.52 248.64c31.859 23.893 75.661 23.893 107.52 0zM825.596 571.202l-313.596 235.198-313.602-235.202v-481.598h179.2v268.8c0 24.742 20.058 44.8 44.8 44.8h179.198c24.742 0 44.8-20.058 44.8-44.8v-268.8h179.2v481.602zM556.796 89.6v224h-89.6v-224h89.6z" />
<glyph unicode="&#xe612;" glyph-name="lego" d="M437.897 818.525c-27.287 0-49.405-22.119-49.405-49.403v-49.404c0-27.285-22.118-49.403-49.403-49.403h-197.614v-148.212c81.854 0 148.21-66.355 148.21-148.207 0-81.856-66.356-148.211-148.21-148.211v-148.211h148.21c0 81.856 66.356 148.211 148.212 148.211 81.852 0 148.207-66.355 148.207-148.211h148.211v197.615c0 27.285 22.118 49.404 49.404 49.404h49.404c27.285 0 49.404 22.118 49.404 49.404 0 27.281-22.118 49.404-49.404 49.404h-49.404c-27.285 0-49.404 22.118-49.404 49.399v197.616h-197.615c-27.281 0-49.399 22.118-49.399 49.403v49.404c0 27.284-22.123 49.403-49.404 49.403zM289.684 769.122c0 81.854 66.356 148.21 148.212 148.21 81.852 0 148.207-66.356 148.207-148.21h148.211c54.571 0 98.807-44.238 98.807-98.807v-148.212c81.856 0 148.211-66.355 148.211-148.207 0-81.856-66.355-148.211-148.211-148.211v-148.211c0-54.571-44.237-98.807-98.807-98.807h-197.615c-27.281 0-49.399 22.118-49.399 49.404v49.404c0 27.285-22.123 49.404-49.404 49.404-27.287 0-49.405-22.118-49.405-49.404v-49.404c0-27.285-22.118-49.404-49.403-49.404h-197.614c-54.569 0-98.807 44.237-98.807 98.807v197.615c0 27.285 22.119 49.404 49.403 49.404h49.404c27.285 0 49.403 22.118 49.403 49.404 0 27.281-22.118 49.404-49.403 49.404h-49.404c-27.284 0-49.403 22.118-49.403 49.399v197.616c0 54.569 44.237 98.807 98.807 98.807h148.21z" />
<glyph unicode="&#xe613;" glyph-name="tool" d="M761.353 285.090c0 22.494-18.231 40.73-40.725 40.73h-172.791c-22.494 0-40.73-18.236-40.73-40.73s18.236-40.725 40.73-40.725h172.791c22.494 0 40.725 18.231 40.725 40.725zM332.27 558.252c-15.905 15.905-41.692 15.905-57.597 0s-15.905-41.692 0-57.598l93.383-93.385-93.383-93.38c-15.905-15.906-15.905-41.694 0-57.6 15.905-15.902 41.692-15.902 57.597 0l122.181 122.185c1.988 1.988 3.729 4.13 5.218 6.387 10.441 15.808 8.7 37.291-5.218 51.209l-122.181 122.182zM148.757 814.545h726.486c46.81 0 84.757-37.871 84.757-84.587v-563.916c0-46.716-37.948-84.587-84.757-84.587h-726.486c-46.81 0-84.757 37.871-84.757 84.587v563.916c0 46.716 37.947 84.587 84.757 84.587zM152.793 651.636v-481.567h718.414v481.567h-718.414z" />
<glyph unicode="&#xe614;" glyph-name="upgrade" d="M108.8 89.6c-24.742 0-44.8-20.058-44.8-44.8s20.058-44.8 44.8-44.8h806.4c24.742 0 44.8 20.058 44.8 44.8s-20.058 44.8-44.8 44.8h-806.4zM467.2 224c0-24.742 20.058-44.8 44.8-44.8s44.8 20.058 44.8 44.8v519.043l147.52-147.522c17.498-17.495 45.862-17.495 63.36 0 17.493 17.495 17.493 45.861 0 63.357l-224 224c-15.309 15.309-38.942 17.222-56.329 5.741-2.487-1.64-4.843-3.554-7.031-5.741l-223.998-224c-17.495-17.495-17.495-45.861 0-63.357s45.861-17.495 63.357 0l147.522 147.521v-519.043z" />
<glyph unicode="&#xe615;" glyph-name="expand-close" d="M451.576 689.697l-362.547-362.548c-33.372-33.37-33.372-87.475 0-120.849 33.372-33.37 87.477-33.37 120.849 0l302.122 302.123 302.123-302.123c33.37-33.37 87.475-33.37 120.849 0 33.37 33.374 33.37 87.479 0 120.849l-362.197 362.197c-0.115 0.117-0.23 0.235-0.35 0.352-29.201 29.201-74.274 32.85-107.443 10.949-4.147-2.737-8.107-5.874-11.827-9.41-0.533-0.505-1.058-1.018-1.579-1.54z" />
<glyph unicode="&#xe616;" glyph-name="expand-open" d="M451.576 206.302l-362.547 362.546c-33.372 33.372-33.372 87.478 0 120.849s87.477 33.372 120.849 0l302.122-302.121 302.123 302.123c33.37 33.371 87.475 33.371 120.849 0 33.37-33.372 33.37-87.478 0-120.849l-362.197-362.197c-0.115-0.115-0.23-0.235-0.35-0.35-29.201-29.201-74.274-32.853-107.443-10.948-4.147 2.735-8.107 5.871-11.827 9.408-0.533 0.503-1.058 1.020-1.579 1.54z" />
<glyph unicode="&#xe617;" glyph-name="gripper" d="M238.222 796.445c0 54.983 44.573 99.555 99.555 99.555s99.554-44.573 99.554-99.555c0-54.983-44.57-99.556-99.554-99.556s-99.555 44.573-99.555 99.556zM586.665 796.445c0 54.983 44.574 99.555 99.558 99.555 54.98 0 99.554-44.573 99.554-99.555s-44.574-99.556-99.554-99.556c-54.985 0-99.558 44.573-99.558 99.556zM238.222 448c0 54.985 44.573 99.555 99.555 99.555s99.554-44.571 99.554-99.555c0-54.985-44.57-99.554-99.554-99.554s-99.555 44.57-99.555 99.554zM586.665 448c0 54.985 44.574 99.555 99.558 99.555 54.98 0 99.554-44.571 99.554-99.555s-44.574-99.554-99.554-99.554c-54.985 0-99.558 44.57-99.558 99.554zM238.222 99.554c0 54.985 44.573 99.558 99.555 99.558s99.554-44.574 99.554-99.558c0-54.98-44.57-99.554-99.554-99.554s-99.555 44.574-99.555 99.554zM586.665 99.554c0 54.985 44.574 99.558 99.558 99.558 54.98 0 99.554-44.574 99.554-99.558 0-54.98-44.574-99.554-99.554-99.554-54.985 0-99.558 44.574-99.558 99.554z" />
<glyph unicode="&#xe618;" glyph-name="forward" d="M748.651 530.28l-526.968 310.088c-68.643 40.392-157.683-6.070-157.683-82.282v-620.173c0-76.211 89.039-122.675 157.682-82.283l526.968 310.089c64.585 38.003 64.585 126.558 0 164.561zM960 122.182c0-44.988-36.467-81.455-81.455-81.455s-81.455 36.467-81.455 81.455v651.636c0 44.986 36.467 81.455 81.455 81.455s81.455-36.468 81.455-81.455v-651.636z" />
<glyph unicode="&#xe619;" glyph-name="backward" d="M275.348 365.72l526.969-310.089c68.642-40.393 157.683 6.071 157.683 82.283v620.173c0 76.212-89.041 122.674-157.683 82.282l-526.969-310.088c-64.585-38.003-64.585-126.558 0-164.561zM64 773.819c0 44.986 36.468 81.455 81.455 81.455s81.455-36.468 81.455-81.455v-651.636c0-44.988-36.468-81.455-81.455-81.455s-81.455 36.467-81.455 81.455v651.636z" />
<glyph unicode="&#xe61a;" glyph-name="info" d="M512 823.467c207.364 0 375.467-168.102 375.467-375.467s-168.102-375.467-375.467-375.467c-207.364 0-375.467 168.102-375.467 375.467s168.102 375.467 375.467 375.467zM512 917.333c-259.206 0-469.333-210.128-469.333-469.333 0-259.204 210.128-469.333 469.333-469.333 259.204 0 469.333 210.129 469.333 469.333 0 259.206-210.129 469.333-469.333 469.333zM465.067 682.667c0 25.92 21.013 46.933 46.933 46.933s46.933-21.013 46.933-46.933c0-25.92-21.013-46.933-46.933-46.933s-46.933 21.013-46.933 46.933zM562.231 213.333c0-25.92-21.009-46.933-46.933-46.933-25.92 0-46.933 21.013-46.933 46.933v281.6c0 25.92 21.013 46.933 46.933 46.933 25.924 0 46.933-21.013 46.933-46.933v-281.6z" />
<glyph unicode="&#xe61b;" glyph-name="lock" d="M601.6 291.2c0-49.485-40.115-89.6-89.6-89.6s-89.6 40.115-89.6 89.6c0 49.485 40.115 89.6 89.6 89.6s89.6-40.115 89.6-89.6zM288 582.4v89.6c0 123.712 100.288 224 224 224s224-100.288 224-224v-89.6h44.8c49.485 0 89.6-40.115 89.6-89.6v-403.2c0-49.485-40.115-89.6-89.6-89.6h-537.6c-49.485 0-89.6 40.115-89.6 89.6v403.2c0 49.485 40.115 89.6 89.6 89.6h44.8zM646.4 672c0 74.227-60.173 134.4-134.4 134.4s-134.4-60.173-134.4-134.4v-89.6h268.8v89.6zM243.2 492.8v-403.2h537.6v403.2h-537.6z" />
<glyph unicode="&#xe61c;" glyph-name="loop" d="M959.999 739.2c0 49.485-40.115 89.6-89.6 89.6h-716.8c-49.485 0-89.6-40.115-89.6-89.6v-448.002c0-49.485 40.115-89.6 89.6-89.6h224c24.742 0 44.8 20.058 44.8 44.8s-20.058 44.8-44.8 44.8h-224v448.002h716.8v-448.002h-205.918l58.398 58.398c17.493 17.498 17.493 45.862 0 63.356-17.498 17.498-45.862 17.498-63.36 0l-134.63-134.63c-8.239-8.239-12.599-18.884-13.077-29.675-0.546-12.13 3.814-24.439 13.077-33.702l134.622-134.622c17.498-17.498 45.862-17.498 63.356 0 17.498 17.493 17.498 45.858 0 63.356l-57.92 57.92h205.453c49.485 0 89.6 40.119 89.6 89.6v448.002z" />
<glyph unicode="&#xe61d;" glyph-name="plus" d="M568 840c0 30.928-25.071 56-56 56s-56-25.072-56-56v-336h-336c-30.928 0-56-25.071-56-56s25.072-56 56-56h336v-336c0-30.929 25.071-56 56-56s56 25.071 56 56v336h336c30.929 0 56 25.071 56 56s-25.071 56-56 56h-336v336z" />
<glyph unicode="&#xe61e;" glyph-name="recover" d="M377.599 627.199c0-24.742-20.058-44.8-44.8-44.8h-223.999c-24.742 0-44.8 20.058-44.8 44.8v223.999c0 24.742 20.058 44.8 44.8 44.8s44.8-20.058 44.8-44.8v-131.999c81.987 107.405 211.572 176.799 357.406 176.799 247.868 0 448.994-200.471 448.994-448 0-247.526-201.126-447.996-448.994-447.996-232.756 0-424.236 176.721-446.782 403.238-2.45 24.623 15.522 46.566 40.143 49.020 24.621 2.449 46.566-15.522 49.017-40.145 18.013-180.975 171.195-322.513 357.623-322.513 198.592 0 359.394 160.563 359.394 358.396 0 197.836-160.802 358.4-359.394 358.4-113.481 0-214.685-52.425-280.579-134.4h102.372c24.742 0 44.8-20.058 44.8-44.8zM512 671.999c-24.742 0-44.8-20.058-44.8-44.8v-134.401h-134.401c-24.742 0-44.8-20.058-44.8-44.8s20.058-44.8 44.8-44.8h134.401v-134.396c0-24.742 20.058-44.8 44.8-44.8s44.8 20.058 44.8 44.8v134.396h134.396c24.742 0 44.8 20.058 44.8 44.8s-20.058 44.8-44.8 44.8h-134.396v134.401c0 24.742-20.058 44.8-44.8 44.8z" />
<glyph unicode="&#xe61f;" glyph-name="refresh" d="M213.976 649.598c64.894 94.677 174.146 156.799 298.025 156.799 187.038 0 340.57-141.633 358.618-322.527 2.458-24.619 24.41-42.586 49.028-40.128 24.619 2.453 42.586 24.405 40.128 49.024-22.609 226.605-214.596 403.23-447.774 403.23-146.248 0-276.226-69.485-358.401-177.059v109.859c0 24.742-20.057 44.8-44.8 44.8s-44.8-20.057-44.8-44.8v-223.998c0-24.742 20.058-44.8 44.8-44.8h223.998c24.742 0 44.8 20.058 44.8 44.8s-20.058 44.8-44.8 44.8h-118.822zM153.382 412.126c-2.456 24.623-24.406 42.59-49.026 40.132s-42.587-24.405-40.13-49.028c22.61-226.603 214.596-403.226 447.775-403.226 146.244 0 276.22 69.478 358.396 177.050v-109.854c0-24.738 20.058-44.796 44.8-44.796 24.738 0 44.796 20.058 44.796 44.796v224c0 24.742-20.058 44.8-44.796 44.8h-224c-24.742 0-44.8-20.058-44.8-44.8s20.058-44.8 44.8-44.8h118.831c-64.896-94.677-174.148-156.8-298.027-156.8-187.039 0-340.57 141.636-358.619 322.526z" />
<glyph unicode="&#xe620;" glyph-name="remove-small" d="M934.908 25.092c-33.37-33.365-87.467-33.365-120.832 0l-302.076 302.076-302.077-302.076c-33.366-33.365-87.464-33.365-120.83 0s-33.367 87.467 0 120.832l302.076 302.076-302.076 302.077c-33.367 33.366-33.367 87.464 0 120.83s87.464 33.367 120.83 0l302.077-302.076 302.076 302.075c33.365 33.367 87.462 33.367 120.832 0 33.365-33.366 33.365-87.464 0-120.83l-302.076-302.076 302.076-302.076c33.365-33.365 33.365-87.462 0-120.832z" />
<glyph unicode="&#xe621;" glyph-name="retweet" d="M946.88 237.056c17.493 17.459 17.493 45.769 0 63.228-17.498 17.459-45.862 17.459-63.36 0l-57.92-57.805v519.121c0 24.742-20.058 44.8-44.8 44.8h-268.8c-24.742 0-44.8-20.058-44.8-44.8s20.058-44.8 44.8-44.8h224v-474.317l-58.138 58.022c-17.498 17.459-45.862 17.459-63.36 0-17.493-17.459-17.493-45.769 0-63.228l130.748-130.483c1.114-1.421 2.325-2.79 3.639-4.1 17.28-17.246 45.171-17.455 62.711-0.627 0.299 0.282 0.593 0.567 0.883 0.858l0.589 0.597 133.807 133.534zM77.122 658.944c-17.495-17.46-17.495-45.769 0-63.229s45.861-17.46 63.357 0l57.922 57.804v-519.12c0-24.742 20.058-44.8 44.8-44.8h268.8c24.742 0 44.8 20.058 44.8 44.8s-20.058 44.8-44.8 44.8h-224v474.317l58.14-58.022c17.495-17.46 45.861-17.46 63.357 0s17.495 45.769 0 63.229l-130.746 130.481c-1.114 1.422-2.327 2.791-3.639 4.1-17.283 17.248-45.174 17.457-62.714 0.628-0.297-0.281-0.591-0.567-0.882-0.857l-0.589-0.599-133.804-133.533z" />
<glyph unicode="&#xe622;" glyph-name="unlocked" d="M601.6 291.2c0-49.485-40.115-89.6-89.6-89.6s-89.6 40.115-89.6 89.6c0 49.485 40.115 89.6 89.6 89.6s89.6-40.115 89.6-89.6zM512.009 896c122.513 0 224-96.878 224-219.022v-94.578h44.791c49.485 0 89.6-40.115 89.6-89.6v-403.2c0-49.485-40.115-89.6-89.6-89.6h-537.6c-49.485 0-89.6 40.115-89.6 89.6v403.2c0 49.485 40.115 89.6 89.6 89.6h403.209v94.578c0 70.296-58.974 129.422-134.4 129.422-64.508 0-117.333-43.505-130.938-100.076-5.786-24.057-29.977-38.868-54.034-33.082s-38.868 29.977-33.082 54.033c23.446 97.49 112.809 168.724 218.054 168.724zM243.2 492.8v-403.2h537.6v403.2h-537.6z" />
<glyph unicode="&#xe623;" glyph-name="warning" d="M943.608 231.013c44.429-71.313-6.682-163.814-90.513-163.814h-682.19c-83.833 0-134.942 92.501-90.511 163.814l341.096 547.465c41.806 67.096 139.214 67.096 181.019 0l341.099-547.465zM512.005 716.8c-24.742 0-44.8-20.058-44.8-44.8v-268.801c0-24.742 20.058-44.8 44.8-44.8s44.8 20.058 44.8 44.8v268.801c0 24.742-20.058 44.8-44.8 44.8zM512.005 179.199c24.742 0 44.8 20.058 44.8 44.8s-20.058 44.8-44.8 44.8c-24.742 0-44.8-20.058-44.8-44.8s20.058-44.8 44.8-44.8z" />
<glyph unicode="&#xe624;" glyph-name="arrow-left" d="M402.76 813.255l-320.015-320.012c-24.993-24.99-24.993-65.498 0-90.487l320.015-320.013c24.995-24.99 65.498-24.99 90.488 0 24.994 24.994 24.994 65.498 0 90.492l-210.749 210.748h613.484c35.345 0 64.017 28.634 64.017 64.017s-28.672 64.017-64.017 64.017h-613.484l210.749 210.749c12.48 12.477 18.735 28.861 18.735 45.245s-6.255 32.767-18.735 45.245c-24.99 24.992-65.493 24.992-90.488 0z" />
<glyph unicode="&#xe625;" glyph-name="arrow-right" d="M621.239 813.255l320.017-320.012c24.99-24.99 24.99-65.498 0-90.487l-320.017-320.013c-24.994-24.99-65.498-24.99-90.487 0-24.994 24.994-24.994 65.498 0 90.492l210.748 210.748h-613.481c-35.347 0-64.018 28.634-64.018 64.017s28.672 64.017 64.018 64.017h613.481l-210.748 210.749c-12.48 12.477-18.735 28.861-18.735 45.245s6.255 32.767 18.735 45.245c24.99 24.992 65.493 24.992 90.487 0z" />
<glyph unicode="&#xe626;" glyph-name="back-arrow" d="M402.76 813.256l-320.015-320.012c-24.993-24.99-24.993-65.498 0-90.487l320.015-320.013c24.995-24.99 65.498-24.99 90.488 0 24.994 24.994 24.994 65.498 0 90.492l-210.749 210.748h613.484c35.345 0 64.017 28.634 64.017 64.017s-28.672 64.017-64.017 64.017h-613.484l210.749 210.749c12.48 12.477 18.735 28.861 18.735 45.245s-6.255 32.767-18.735 45.245c-24.99 24.992-65.493 24.992-90.488 0z" />
<glyph unicode="&#xe627;" glyph-name="calendar" d="M64 716.8c0 49.485 40.115 89.6 89.6 89.6h716.799c49.485 0 89.6-40.115 89.6-89.6v-627.2c0-49.485-40.115-89.6-89.6-89.6h-716.799c-49.485 0-89.6 40.115-89.6 89.6v627.2zM870.399 716.8h-716.799v-627.2h716.799v627.2zM64 716.8c0 49.485 40.115 89.6 89.6 89.6h716.799c49.485 0 89.6-40.115 89.6-89.6v-89.6c0-49.485-40.115-89.6-89.6-89.6h-716.799c-49.485 0-89.6 40.115-89.6 89.6v89.6zM870.399 716.8h-716.799v-89.6h716.799v89.6zM601.599 224c0 24.742 20.058 44.8 44.8 44.8h89.6c24.742 0 44.8-20.058 44.8-44.8s-20.058-44.8-44.8-44.8h-89.6c-24.742 0-44.8 20.058-44.8 44.8zM243.2 851.2c0 24.742 20.058 44.8 44.8 44.8s44.8-20.058 44.8-44.8v-89.6c0-24.742-20.058-44.8-44.8-44.8s-44.8 20.058-44.8 44.8v89.6zM691.199 851.2c0 24.742 20.058 44.8 44.8 44.8s44.8-20.058 44.8-44.8v-89.6c0-24.742-20.058-44.8-44.8-44.8s-44.8 20.058-44.8 44.8v89.6z" />
<glyph unicode="&#xe628;" glyph-name="caret-down" d="M80.259 605.008c-21.678 21.679-21.678 56.826 0 78.504s56.826 21.678 78.504 0l392.518-392.517c21.679-21.679 21.679-56.828 0-78.507s-56.823-21.679-78.502 0l-392.52 392.52zM865.239 683.512c21.675 21.678 56.823 21.678 78.502 0s21.679-56.826 0-78.504l-392.461-392.52c-21.679-21.679-56.823-21.679-78.502 0s-21.739 56.828-0.060 78.507l392.521 392.517z" />
<glyph unicode="&#xe629;" glyph-name="caret-left" d="M669.008 879.74c21.679 21.678 56.828 21.678 78.502 0 21.679-21.679 21.679-56.826 0-78.504l-392.517-392.521c-21.679-21.675-56.826-21.675-78.504 0-21.678 21.679-21.678 56.828 0 78.507l392.519 392.518zM747.51 94.762c21.679-21.679 21.679-56.828 0-78.502-21.675-21.679-56.823-21.679-78.502 0l-392.519 392.516c-21.678 21.679-21.678 56.828 0 78.507 21.679 21.675 56.826 21.675 78.504 0l392.517-392.521z" />
<glyph unicode="&#xe62a;" glyph-name="caret-right" d="M354.993 879.74c-21.679 21.678-56.826 21.678-78.504 0s-21.678-56.826 0-78.504l392.519-392.521c21.679-21.675 56.828-21.675 78.502 0 21.679 21.679 21.679 56.828 0 78.507l-392.517 392.518zM276.489 94.762c-21.678-21.679-21.678-56.828 0-78.502 21.679-21.679 56.826-21.679 78.504 0l392.517 392.457c21.679 21.679 21.679 56.828 0 78.507-21.675 21.679-56.823 21.734-78.502 0.060l-392.519-392.521z" />
<glyph unicode="&#xe62b;" glyph-name="caret-up" d="M943.741 290.995c21.679-21.679 21.679-56.828 0-78.507s-56.828-21.679-78.502 0l-392.521 392.52c-21.679 21.679-21.679 56.826 0 78.504s56.823 21.678 78.502 0l392.521-392.517zM158.762 212.489c-21.678-21.679-56.825-21.679-78.504 0s-21.678 56.828 0 78.507l392.46 392.517c21.679 21.678 56.823 21.678 78.502 0s21.739-56.826 0.060-78.504l-392.518-392.52z" />
<glyph unicode="&#xe62c;" glyph-name="ccw" d="M332.8 582.398c24.742 0 44.8 20.058 44.8 44.8s-20.058 44.8-44.8 44.8h-102.374c65.885 81.962 167.099 134.4 280.581 134.4 198.592 0 359.394-160.565 359.394-358.4 0-197.833-160.802-358.396-359.394-358.396-186.428 0-339.61 141.538-357.623 322.513-2.451 24.623-24.396 42.594-49.017 40.145-24.621-2.453-42.593-24.397-40.143-49.020 22.546-226.517 214.026-403.238 446.782-403.238 247.868 0 448.994 200.469 448.994 447.996 0 247.529-201.126 448-448.994 448-145.834 0-275.408-69.382-357.406-176.802v132.002c0 24.742-20.058 44.8-44.8 44.8s-44.8-20.058-44.8-44.8v-223.999c0-24.742 20.058-44.8 44.8-44.8h39.050c0.626-0.013 1.251-0.013 1.875 0h183.074z" />
<glyph unicode="&#xe62d;" glyph-name="check-mage" d="M935.005 758.256c33.327-33.325 33.327-87.357 0-120.682l-499.827-499.828c-16.004-16.004-37.711-24.994-60.344-24.994s-44.339 8.994-60.342 24.998l-225.503 225.536c-33.323 33.327-33.319 87.36 0.009 120.683s87.359 33.318 120.682-0.009l165.162-165.188 439.481 439.483c33.327 33.325 87.356 33.325 120.683 0z" />
<glyph unicode="&#xe62e;" glyph-name="clock" d="M467.2 672c0 24.742 20.058 44.8 44.8 44.8s44.8-20.058 44.8-44.8v-206.071l145.289-145.293c17.498-17.493 17.498-45.862 0-63.356-17.493-17.498-45.858-17.498-63.356 0l-158.391 158.391c-8.469 8.469-12.838 19.486-13.107 30.583-0.021 0.58-0.034 1.161-0.034 1.745v224zM512 0c-247.424 0-448 200.576-448 448s200.576 448 448 448c247.424 0 448-200.576 448-448s-200.576-448-448-448zM512 89.6c197.939 0 358.4 160.461 358.4 358.4s-160.461 358.4-358.4 358.4c-197.939 0-358.4-160.461-358.4-358.4s160.461-358.4 358.4-358.4z" />
<glyph unicode="&#xe62f;" glyph-name="close-mage" d="M864.401 879.598c21.871 21.869 57.327 21.869 79.198 0 21.867-21.87 21.867-57.327 0-79.196l-352.401-352.402 352.401-352.401c21.867-21.871 21.867-57.327 0-79.198-21.871-21.867-57.327-21.867-79.198 0l-352.401 352.401-352.402-352.401c-21.869-21.867-57.327-21.867-79.196 0-21.869 21.871-21.869 57.327 0 79.198l352.4 352.401-352.4 352.402c-21.869 21.87-21.869 57.327 0 79.196s57.327 21.869 79.196 0l352.402-352.4 352.401 352.4z" />
<glyph unicode="&#xe630;" glyph-name="delete" d="M332.803 851.2c0 24.742 20.058 44.8 44.8 44.8h268.802c24.738 0 44.8-20.058 44.8-44.8v-44.798h179.2c24.742 0 44.8-20.058 44.8-44.8s-20.058-44.8-44.8-44.8h-44.791v-627.202c0-49.485-40.119-89.6-89.6-89.6h-448.003c-49.485 0-89.6 40.115-89.6 89.6v627.202h-44.808c-24.742 0-44.8 20.058-44.8 44.8s20.058 44.8 44.8 44.8h179.2v44.798zM288.010 716.802v-627.202h448.003v627.202h-448.003zM556.796 582.4c0 24.742-20.058 44.8-44.8 44.8s-44.8-20.058-44.8-44.8v-358.4c0-24.742 20.058-44.8 44.8-44.8s44.8 20.058 44.8 44.8v358.4z" />
<glyph unicode="&#xe631;" glyph-name="edit" d="M933.175 869.177c-35.763 35.764-93.747 35.764-129.515 0l-97.766-97.769 129.515-129.515 97.766 97.769c35.767 35.764 35.767 93.751 0 129.515zM770.65 577.135l-129.515 129.515-514.663-514.663c-3.341-3.341-5.956-7.334-7.683-11.733l-52.328-133.274c-10.959-27.913 16.607-55.479 44.518-44.518l133.274 52.326c4.398 1.728 8.392 4.343 11.733 7.684l514.662 514.663z" />
<glyph unicode="&#xe632;" glyph-name="error" d="M870.908 89.092c-33.37-33.365-87.467-33.365-120.832 0l-238.076 238.076-238.077-238.076c-33.366-33.365-87.464-33.365-120.83 0s-33.367 87.467 0 120.832l238.076 238.076-238.076 238.077c-33.367 33.366-33.367 87.464 0 120.83s87.464 33.367 120.83 0l238.077-238.076 238.076 238.075c33.365 33.367 87.462 33.367 120.832 0 33.365-33.366 33.365-87.464 0-120.83l-238.076-238.076 238.076-238.076c33.365-33.365 33.365-87.462 0-120.832z" />
<glyph unicode="&#xe633;" glyph-name="help" d="M870.4 448c0 197.939-160.461 358.4-358.4 358.4s-358.4-160.461-358.4-358.4c0-197.939 160.461-358.4 358.4-358.4s358.4 160.461 358.4 358.4zM960 448c0-247.424-200.576-448-448-448s-448 200.576-448 448c0 247.424 200.576 448 448 448s448-200.576 448-448zM467.221 560c0 37.114 30.089 67.2 67.2 67.2 37.116 0 67.2-30.086 67.2-67.2 0-13.014-3.699-25.164-10.103-35.456l0.431-0.431-113.788-113.783 0.077-0.077c-6.874-7.876-11.038-18.18-11.038-29.453 0-24.742 20.058-44.8 44.8-44.8 11.273 0 21.577 4.164 29.453 11.038l0.064-0.064 1.604 1.6c0.375 0.363 0.742 0.73 1.105 1.105l111.078 111.078 0.286-0.286c22.263 27.076 35.631 61.739 35.631 99.529 0 86.598-70.199 156.8-156.8 156.8-86.042 0-155.895-69.3-156.791-155.129-0.020-0.555-0.031-1.111-0.031-1.671 0-24.742 20.058-44.8 44.8-44.8s44.8 20.057 44.8 44.8h0.021zM512 179.2c-24.742 0-44.8 20.058-44.8 44.8s20.058 44.8 44.8 44.8c24.742 0 44.8-20.058 44.8-44.8s-20.058-44.8-44.8-44.8z" />
<glyph unicode="&#xe634;" glyph-name="history" d="M377.599 627.199c0-24.742-20.058-44.8-44.8-44.8h-183.074c-0.624-0.013-1.249-0.013-1.875 0h-39.050c-24.742 0-44.8 20.058-44.8 44.8v223.999c0 24.742 20.058 44.8 44.8 44.8s44.8-20.058 44.8-44.8v-132.002c81.998 107.421 211.572 176.802 357.406 176.802 247.868 0 448.994-200.471 448.994-448 0-247.526-201.126-447.996-448.994-447.996-232.756 0-424.236 176.721-446.782 403.238-2.45 24.623 15.522 46.566 40.143 49.020 24.621 2.449 46.566-15.522 49.017-40.145 18.013-180.975 171.195-322.513 357.623-322.513 198.592 0 359.394 160.563 359.394 358.396 0 197.836-160.802 358.4-359.394 358.4-113.482 0-214.696-52.438-280.581-134.4h102.374c24.742 0 44.8-20.058 44.8-44.8zM512 716.799c-24.742 0-44.8-20.058-44.8-44.8v-224.001c0-4.143 0.563-8.158 1.613-11.964 2.91-11.217 10.142-21.299 20.966-27.55l193.988-112c21.427-12.373 48.828-5.030 61.197 16.397 12.373 21.427 5.030 48.828-16.397 61.197l-171.767 99.174v198.746c0 24.742-20.058 44.8-44.8 44.8z" />
<glyph unicode="&#xe635;" glyph-name="export" d="M153.6 313.6c0 24.742-20.058 44.8-44.8 44.8s-44.8-20.058-44.8-44.8v-268.8c0-24.742 20.058-44.8 44.8-44.8h806.4c24.742 0 44.8 20.058 44.8 44.8v268.8c0 24.742-20.058 44.8-44.8 44.8s-44.8-20.058-44.8-44.8v-224h-716.8v224zM467.191 223.996c0-24.742 20.058-44.8 44.8-44.8s44.8 20.058 44.8 44.8v519.069l147.546-147.543c17.493-17.495 45.858-17.495 63.356 0 17.493 17.495 17.493 45.861 0 63.357l-224 224c-8.751 8.751-20.22 13.124-31.689 13.122-11.469 0.003-22.942-4.371-31.693-13.122l-223.998-224c-17.495-17.495-17.495-45.861 0-63.357s45.861-17.495 63.357 0l147.521 147.522v-519.048z" />
<glyph unicode="&#xe636;" glyph-name="import" d="M556.809 851.2c0 24.742-20.058 44.8-44.8 44.8s-44.8-20.058-44.8-44.8v-519.061l-147.543 147.546c-17.495 17.493-45.862 17.493-63.357 0-17.495-17.498-17.495-45.862 0-63.36l223.998-224c8.751-8.751 20.224-13.124 31.693-13.12 11.469-0.004 22.938 4.369 31.689 13.12l224 224c17.493 17.498 17.493 45.862 0 63.36-17.498 17.493-45.862 17.493-63.356 0l-147.524-147.524v519.040zM153.6 313.604c0 24.742-20.058 44.8-44.8 44.8s-44.8-20.058-44.8-44.8v-268.8c0-24.742 20.058-44.8 44.8-44.8h806.4c24.742 0 44.8 20.058 44.8 44.8v268.8c0 24.742-20.058 44.8-44.8 44.8s-44.8-20.058-44.8-44.8v-224h-716.8v224z" />
<glyph unicode="&#xe637;" glyph-name="dot" d="M505.994 895.92c-247.322-3.303-445.218-206.554-441.931-453.967 3.3-247.233 206.584-445.218 453.939-441.872 247.322 3.296 445.218 206.554 441.931 453.967-3.253 247.322-206.584 445.218-453.939 441.872z" />
<glyph unicode="&#xe638;" glyph-name="not-installed" d="M511.965 806.415c-49.468 0-96.596-10.023-139.462-28.148l-67.284 67.283c61.852 32.236 132.169 50.458 206.746 50.458 247.403 0 447.966-200.561 447.966-447.966 0-74.573-18.223-144.892-50.458-206.746l-67.285 67.285c18.125 42.867 28.147 89.993 28.147 139.46 0 197.924-160.448 358.373-358.37 358.373zM795.067 228.279c0.102 0.137 0.209 0.273 0.316 0.405l63.757-63.757c-0.107-0.132-0.218-0.265-0.324-0.397l88.064-88.064c17.493-17.498 17.493-45.858 0-63.351-17.493-17.498-45.858-17.498-63.351 0l-88.068 88.064c-77.222-63.189-175.932-101.103-283.494-101.103-247.405 0-447.966 200.563-447.966 447.966 0 107.566 37.911 206.275 101.101 283.498l-87.34 87.34c-17.494 17.494-17.494 45.858 0 63.352s45.858 17.494 63.352 0l87.338-87.338c0.132 0.108 0.265 0.217 0.397 0.325l63.759-63.758c-0.136-0.105-0.271-0.21-0.407-0.316l502.867-502.865zM731.711 164.927l-502.861 502.863c-47.169-60.684-75.258-136.936-75.258-219.748 0-197.922 160.448-358.37 358.373-358.37 82.812 0 159.061 28.087 219.746 75.255z" />
<glyph unicode="&#xe639;" glyph-name="disabled" d="M780.8 448c0 24.742-20.058 44.8-44.8 44.8h-448c-24.742 0-44.8-20.058-44.8-44.8s20.058-44.8 44.8-44.8h448c24.742 0 44.8 20.058 44.8 44.8zM960 448c0 247.424-200.576 448-448 448s-448-200.576-448-448c0-247.424 200.576-448 448-448s448 200.576 448 448zM870.4 448c0-197.939-160.461-358.4-358.4-358.4s-358.4 160.461-358.4 358.4c0 197.939 160.461 358.4 358.4 358.4s358.4-160.461 358.4-358.4z" />
<glyph unicode="&#xe63a;" glyph-name="menu-item" d="M228.995 658.895l283.074 163.313 283.076-163.313-283.076-163.308-283.074 163.308zM556.544 418.432l278.827 160.862v-321.472l-278.822-160.862-0.004 321.472zM924.036 654.065c1.728 17.999-6.353 36.819-24.243 47.14l-363.277 209.583c-15.13 8.728-33.762 8.728-48.892 0l-363.277-209.583c-17.907-10.331-25.987-29.175-24.24-47.188-0.181-1.734-0.275-3.503-0.275-5.305v-414.015c0-17.481 9.33-33.634 24.473-42.372l358.868-207.040c9.361-5.397 19.388-7.309 28.928-6.4 9.527-0.896 19.533 1.020 28.868 6.409l358.869 207.040c15.142 8.734 24.474 24.887 24.474 42.372v414.012c0 1.816-0.094 3.6-0.277 5.347zM188.776 579.29l278.825-160.862-0.004-321.472-278.821 160.858v321.477z" />
<glyph unicode="&#xe63b;" glyph-name="tag" d="M713.6 582.4c37.111 0 67.2 30.086 67.2 67.2s-30.089 67.2-67.2 67.2c-37.111 0-67.2-30.086-67.2-67.2s30.089-67.2 67.2-67.2zM556.8 896h313.6c23.765 0 46.554-9.44 63.356-26.243s26.244-39.593 26.244-63.357v-313.6c0-23.765-9.442-46.554-26.244-63.356l-403.2-403.2c-34.991-34.991-91.721-34.991-126.712 0l-313.6 313.6c-34.991 34.991-34.991 91.721 0 126.711l403.201 403.201c16.802 16.803 39.59 26.243 63.356 26.243zM870.4 806.4h-313.6l-403.2-403.2 313.6-313.6 403.2 403.2v313.6z" />
<glyph unicode="&#xe63c;" glyph-name="camera" d="M401.577 851.199h220.849c29.956 0 57.933-14.972 74.551-39.899l62.997-94.501h110.426c49.485 0 89.6-40.115 89.6-89.6v-492.798c0-49.485-40.115-89.6-89.6-89.6h-716.8c-49.485 0-89.6 40.115-89.6 89.6v492.798c0 49.485 40.115 89.6 89.6 89.6h110.424l63.001 94.501c16.618 24.927 44.593 39.899 74.551 39.899zM512.001 627.199c-123.712 0-224-100.29-224-223.998 0-123.712 100.288-224 224-224s224 100.288 224 224c0 123.708-100.288 223.998-224 223.998zM377.601 403.201c0 74.223 60.173 134.398 134.4 134.398s134.4-60.175 134.4-134.398c0-74.227-60.173-134.4-134.4-134.4s-134.4 60.173-134.4 134.4z" />
<glyph unicode="&#xe63d;" glyph-name="grid" d="M462.221 896c-27.49 0-49.776-22.286-49.776-49.778v-99.555c0-27.491 22.286-49.778 49.776-49.778h99.558c27.49 0 49.775 22.287 49.775 49.778v99.555c0 27.492-22.285 49.778-49.775 49.778h-99.558zM412.445 497.779c0 27.49 22.286 49.776 49.776 49.776h99.558c27.49 0 49.775-22.286 49.775-49.776v-99.558c0-27.49-22.285-49.775-49.775-49.775h-99.558c-27.49 0-49.776 22.285-49.776 49.775v99.558zM64 149.333c0 27.49 22.286 49.779 49.778 49.779h99.555c27.491 0 49.778-22.289 49.778-49.779v-99.554c0-27.494-22.287-49.779-49.778-49.779h-99.555c-27.492 0-49.778 22.285-49.778 49.779v99.554zM412.445 149.333c0 27.49 22.286 49.779 49.776 49.779h99.558c27.49 0 49.775-22.289 49.775-49.779v-99.554c0-27.494-22.285-49.779-49.775-49.779h-99.558c-27.49 0-49.776 22.285-49.776 49.779v99.554zM810.667 199.113c-27.49 0-49.779-22.289-49.779-49.779v-99.554c0-27.494 22.289-49.779 49.779-49.779h99.554c27.494 0 49.779 22.285 49.779 49.779v99.554c0 27.49-22.285 49.779-49.779 49.779h-99.554zM113.778 547.555c-27.492 0-49.778-22.286-49.778-49.776v-99.558c0-27.49 22.286-49.775 49.778-49.775h99.555c27.491 0 49.778 22.285 49.778 49.775v99.558c0 27.49-22.287 49.776-49.778 49.776h-99.555zM760.887 497.779c0 27.49 22.289 49.776 49.779 49.776h99.554c27.494 0 49.779-22.286 49.779-49.776v-99.558c0-27.49-22.285-49.775-49.779-49.775h-99.554c-27.49 0-49.779 22.285-49.779 49.775v99.558zM64 846.222c0 27.492 22.286 49.778 49.778 49.778h99.555c27.491 0 49.778-22.286 49.778-49.778v-99.555c0-27.491-22.287-49.778-49.778-49.778h-99.555c-27.492 0-49.778 22.287-49.778 49.778v99.555zM810.667 896c-27.49 0-49.779-22.286-49.779-49.778v-99.555c0-27.491 22.289-49.778 49.779-49.778h99.554c27.494 0 49.779 22.287 49.779 49.778v99.555c0 27.492-22.285 49.778-49.779 49.778h-99.554z" />
<glyph unicode="&#xe63e;" glyph-name="list-menu" d="M64 712.669c0 33.74 27.351 61.091 61.091 61.091h773.819c33.741 0 61.090-27.351 61.090-61.091s-27.349-61.091-61.090-61.091h-773.819c-33.74 0-61.091 27.351-61.091 61.091zM64 447.94c0 33.741 27.351 61.094 61.091 61.094h773.819c33.741 0 61.090-27.354 61.090-61.094 0-33.737-27.349-61.090-61.090-61.090h-773.819c-33.74 0-61.091 27.354-61.091 61.090zM125.091 244.305c-33.74 0-61.091-27.349-61.091-61.090s27.351-61.090 61.091-61.090h773.819c33.741 0 61.090 27.349 61.090 61.090s-27.349 61.090-61.090 61.090h-773.819z" />
<glyph unicode="&#xe63f;" glyph-name="cart" d="M512 896c-98.97 0-179.2-80.23-179.2-179.2h-134.4c-24.742 0-44.8-20.058-44.8-44.8v-627.2c0-24.742 20.058-44.8 44.8-44.8h627.2c24.742 0 44.8 20.058 44.8 44.8v627.2c0 24.742-20.058 44.8-44.8 44.8h-134.4c0 98.97-80.23 179.2-179.2 179.2zM601.6 627.2v-89.6c0-24.742 20.058-44.8 44.8-44.8s44.8 20.058 44.8 44.8v89.6h89.6v-537.6h-537.6v537.6h89.6v-89.6c0-24.742 20.058-44.8 44.8-44.8s44.8 20.058 44.8 44.8v89.6h179.2zM601.6 716.8h-179.2c0 49.485 40.115 89.6 89.6 89.6s89.6-40.115 89.6-89.6z" />
<glyph unicode="&#xe642;" glyph-name="revert" d="M216.678 559.978l58.389-58.388c17.492-17.493 17.492-45.854 0-63.343-17.492-17.493-45.851-17.493-63.343 0l-134.604 134.603c-8.16 8.16-12.514 18.686-13.060 29.37l-0.030 0.689c-0.434 12 3.929 24.14 13.089 33.3l134.595 134.595c17.492 17.492 45.851 17.492 63.343 0s17.492-45.851 0-63.343l-57.903-57.903h459.177c153.899 0 283.669-117.641 283.669-268.741s-129.771-268.74-283.669-268.74h-343.392c-24.737 0-44.79 20.053-44.79 44.791 0 24.734 20.053 44.787 44.79 44.787h343.392c109.961 0 194.091 82.893 194.091 179.162s-84.13 179.161-194.091 179.161h-459.654z" />
<glyph unicode="&#xe643;" glyph-name="clip" d="M265.6 716.8c0 98.97 80.23 179.2 179.2 179.2s179.2-80.23 179.2-179.2v-425.6c0-61.854-50.146-112-112-112s-112 50.146-112 112v380.8c0 24.742 20.058 44.8 44.8 44.8s44.8-20.058 44.8-44.8v-380.8c0-12.369 10.027-22.4 22.4-22.4 12.369 0 22.4 10.031 22.4 22.4v425.6c0 49.485-40.115 89.6-89.6 89.6s-89.6-40.115-89.6-89.6v-470.4c0-86.596 70.202-156.8 156.8-156.8 86.596 0 156.8 70.204 156.8 156.8v425.6c0 24.742 20.058 44.8 44.8 44.8s44.8-20.058 44.8-44.8v-425.6c0-136.081-110.319-246.4-246.4-246.4-136.083 0-246.4 110.319-246.4 246.4v470.4z" />
<glyph unicode="&#xe644;" glyph-name="external-link" d="M42.667 870.4c0 25.92 21.013 46.933 46.933 46.933h375.467c25.92 0 46.933-21.013 46.933-46.933s-21.013-46.933-46.933-46.933h-328.533v-750.933h750.933v328.533c0 25.92 21.013 46.933 46.933 46.933s46.933-21.013 46.933-46.933v-375.467c0-25.92-21.013-46.933-46.933-46.933h-844.8c-25.92 0-46.933 21.013-46.933 46.933v844.8zM920.653 856.654c18.33-18.329 18.33-48.045 0-66.374l-469.333-469.332c-18.33-18.33-48.044-18.33-66.373 0s-18.328 48.043 0 66.372l469.334 469.334c18.33 18.328 48.043 18.328 66.372 0zM605.867 870.4c0 25.92 21.013 46.933 46.933 46.933h281.6c25.92 0 46.933-21.013 46.933-46.933s-21.013-46.933-46.933-46.933h-281.6c-25.92 0-46.933 21.013-46.933 46.933zM934.4 917.333c25.92 0 46.933-21.013 46.933-46.933v-281.6c0-25.92-21.013-46.933-46.933-46.933s-46.933 21.013-46.933 46.933v281.6c0 25.92 21.013 46.933 46.933 46.933z" />
<glyph unicode="&#xe647;" glyph-name="module" d="M437.897 818.526c-27.287 0-49.405-22.119-49.405-49.403v-49.404c0-27.285-22.118-49.403-49.403-49.403h-197.614v-148.212c81.854 0 148.21-66.355 148.21-148.207 0-81.856-66.356-148.211-148.21-148.211v-148.211h148.21c0 81.856 66.356 148.211 148.212 148.211 81.852 0 148.207-66.355 148.207-148.211h148.211v197.615c0 27.285 22.118 49.404 49.404 49.404h49.404c27.285 0 49.404 22.118 49.404 49.404 0 27.281-22.118 49.404-49.404 49.404h-49.404c-27.285 0-49.404 22.118-49.404 49.399v197.616h-197.615c-27.281 0-49.399 22.118-49.399 49.403v49.404c0 27.284-22.123 49.403-49.404 49.403zM289.684 769.123c0 81.854 66.356 148.21 148.212 148.21 81.852 0 148.207-66.356 148.207-148.21h148.211c54.571 0 98.807-44.238 98.807-98.807v-148.212c81.856 0 148.211-66.355 148.211-148.207 0-81.856-66.355-148.211-148.211-148.211v-148.211c0-54.571-44.237-98.807-98.807-98.807h-197.615c-27.281 0-49.399 22.118-49.399 49.404v49.404c0 27.285-22.123 49.404-49.404 49.404-27.287 0-49.405-22.118-49.405-49.404v-49.404c0-27.285-22.118-49.404-49.403-49.404h-197.614c-54.569 0-98.807 44.237-98.807 98.807v197.615c0 27.285 22.119 49.404 49.403 49.404h49.404c27.285 0 49.403 22.118 49.403 49.404 0 27.281-22.118 49.404-49.403 49.404h-49.404c-27.284 0-49.403 22.118-49.403 49.399v197.616c0 54.569 44.237 98.807 98.807 98.807h148.21z" />
<glyph unicode="&#xe648;" glyph-name="alert-round" d="M512 72.533c-207.365 0-375.467 168.102-375.467 375.467s168.102 375.467 375.467 375.467c207.364 0 375.467-168.102 375.467-375.467s-168.102-375.467-375.467-375.467zM512-21.333c259.204 0 469.333 210.129 469.333 469.333 0 259.206-210.129 469.333-469.333 469.333-259.206 0-469.333-210.128-469.333-469.333 0-259.204 210.128-469.333 469.333-469.333zM558.933 213.333c0-25.92-21.013-46.933-46.933-46.933s-46.933 21.013-46.933 46.933c0 25.92 21.013 46.933 46.933 46.933s46.933-21.013 46.933-46.933zM461.769 682.667c0 25.92 21.009 46.933 46.933 46.933 25.92 0 46.933-21.013 46.933-46.933v-281.6c0-25.92-21.013-46.933-46.933-46.933-25.924 0-46.933 21.013-46.933 46.933v281.6z" />
<glyph unicode="&#xe649;" glyph-name="document" d="M183.475 917.333c-25.921 0-46.933-21.013-46.933-46.933v-844.8c0-25.92 21.012-46.933 46.933-46.933h657.067c25.92 0 46.933 21.013 46.933 46.933v657.067c0 12.448-4.945 24.385-13.747 33.187l-187.733 187.733c-8.802 8.802-20.74 13.746-33.186 13.746h-469.333zM230.409 72.533v750.933h328.529v-187.732c0-25.92 21.013-46.933 46.933-46.933h187.738v-516.268h-563.2z" />
<glyph unicode="&#xe900;" glyph-name="accordion" d="M437.897 818.526c-27.287 0-49.405-22.119-49.405-49.403v-49.404c0-27.285-22.118-49.403-49.403-49.403h-197.614v-148.212c81.854 0 148.21-66.355 148.21-148.207 0-81.856-66.356-148.211-148.21-148.211v-148.211h148.21c0 81.856 66.356 148.211 148.212 148.211 81.852 0 148.207-66.355 148.207-148.211h148.211v197.615c0 27.285 22.118 49.404 49.404 49.404h49.404c27.285 0 49.404 22.118 49.404 49.404 0 27.281-22.118 49.404-49.404 49.404h-49.404c-27.285 0-49.404 22.118-49.404 49.399v197.616h-197.615c-27.281 0-49.399 22.118-49.399 49.403v49.404c0 27.284-22.123 49.403-49.404 49.403zM289.684 769.123c0 81.854 66.356 148.21 148.212 148.21 81.852 0 148.207-66.356 148.207-148.21h148.211c54.571 0 98.807-44.238 98.807-98.807v-148.212c81.856 0 148.211-66.355 148.211-148.207 0-81.856-66.355-148.211-148.211-148.211v-148.211c0-54.571-44.237-98.807-98.807-98.807h-197.615c-27.281 0-49.399 22.118-49.399 49.404v49.404c0 27.285-22.123 49.404-49.404 49.404-27.287 0-49.405-22.118-49.405-49.404v-49.404c0-27.285-22.118-49.404-49.403-49.404h-197.614c-54.569 0-98.807 44.237-98.807 98.807v197.615c0 27.285 22.119 49.404 49.403 49.404h49.404c27.285 0 49.403 22.118 49.403 49.404 0 27.281-22.118 49.404-49.403 49.404h-49.404c-27.284 0-49.403 22.118-49.403 49.399v197.616c0 54.569 44.237 98.807 98.807 98.807h148.21z" />
<glyph unicode="&#xe901;" glyph-name="video" d="M42.667 704c0 47.128 38.205 85.333 85.333 85.333h768c47.13 0 85.333-38.205 85.333-85.333v-512c0-47.13-38.204-85.333-85.333-85.333h-768c-47.128 0-85.333 38.204-85.333 85.333v512zM896 704h-768v-512h768v512zM392.542 549.631c0 31.718 33.379 52.346 61.747 38.162l203.26-101.632c31.45-15.723 31.45-60.599 0-76.322l-203.26-101.632c-28.369-14.182-61.747 6.447-61.747 38.161v203.263z" />
<glyph unicode="&#xe902;" glyph-name="screen" d="M39.023 104.014c0 23.748 19.251 43.001 42.997 43.001h859.962c23.743 0 42.995-19.253 42.995-43.001s-19.253-42.995-42.995-42.995h-859.962c-23.747 0-42.997 19.247-42.997 42.995zM82.020 748.985c0 47.494 38.501 85.996 85.996 85.996h687.97c47.489 0 85.996-38.501 85.996-85.996v-429.978c0-47.496-38.504-85.996-85.996-85.996h-687.97c-47.494 0-85.996 38.5-85.996 85.996v429.978zM855.988 748.985h-687.97v-429.978h687.97v429.978z" />
<glyph unicode="&#xe903;" glyph-name="dashboard-fill" d="M904.026 133.659c35.665 64.294 55.974 138.283 55.974 217.015 0 247.422-200.576 447.999-448 447.999s-448-200.576-448-447.999c0-77.278 19.566-149.986 54.014-213.44 12.912-23.782 38.679-36.979 65.742-36.979h348.609c77.687 0 128.926-0.777 179.486-1.54 38.763-0.585 77.133-1.165 126.716-1.387 26.829-0.119 52.442 12.873 65.459 36.331zM598.558 373.88c1.98-7.403 3.034-15.181 3.034-23.206 0-49.485-40.115-89.6-89.6-89.6s-89.6 40.115-89.6 89.6c0 49.485 40.115 89.6 89.6 89.6 8.030 0 15.808-1.054 23.215-3.034l169.114 169.115c17.498 17.495 45.862 17.495 63.36 0 17.493-17.495 17.493-45.862 0-63.357l-169.122-169.118z" />
<glyph unicode="&#xe904;" glyph-name="sales-fill" d="M153.599 134.4c-23.764 0-46.554 9.438-63.357 26.244-16.803 16.802-26.242 39.59-26.242 63.356v313.599c0 11.881 4.721 23.276 13.123 31.678s19.795 13.122 31.677 13.122c11.878-0.012 23.267-4.735 31.667-13.134s13.121-19.788 13.133-31.666v-268.799c0-11.874 4.714-23.262 13.107-31.663s19.776-13.129 31.651-13.137h537.6c5.888 0.004 11.716-1.152 17.156-3.401s10.385-5.547 14.549-9.707c4.164-4.16 7.467-9.101 9.724-14.541 2.253-5.436 3.413-11.264 3.413-17.152 0-11.883-4.723-23.279-13.124-31.68s-19.793-13.12-31.676-13.12h-582.401zM288 313.6c-11.878 0.009-23.267 4.736-31.667 13.133-8.399 8.401-13.121 19.789-13.133 31.667v358.399c0.012 11.878 4.734 23.267 13.133 31.666s19.788 13.123 31.667 13.134h627.2c11.874-0.023 23.258-4.75 31.654-13.147s13.124-19.779 13.146-31.653v-358.399c-0.013-11.878-4.732-23.266-13.133-31.667-8.401-8.397-19.789-13.124-31.667-13.133h-627.2zM803.968 403.2h66.432v66.432c-16.734-2.47-32.23-10.266-44.186-22.234-11.959-11.964-19.785-27.465-22.246-44.198zM332.8 403.2h66.391c-2.466 16.734-10.255 32.23-22.211 44.194s-27.447 19.759-44.18 22.238v-66.432zM512 535.082c0-23.764 9.438-46.553 26.244-63.355 16.802-16.806 39.59-26.244 63.356-26.244 23.761 0 46.554 9.438 63.356 26.244 16.802 16.802 26.244 39.59 26.244 63.355 0 23.763-9.442 46.554-26.244 63.357s-39.595 26.243-63.356 26.243c-23.765 0-46.554-9.44-63.356-26.243-16.806-16.803-26.244-39.593-26.244-63.357zM870.4 605.567v66.432h-66.432c2.458-16.74 10.249-32.242 22.217-44.202s27.473-19.784 44.215-22.23zM332.8 605.567c16.731 2.461 32.224 10.248 44.182 22.206s19.747 27.451 22.208 44.183h-66.391v-66.389z" />
<glyph unicode="&#xe905;" glyph-name="arrowup" d="M602.508 777.444l341.099-545.751c44.429-71.091-6.677-163.302-90.513-163.302h-682.19c-83.833 0-134.942 92.211-90.511 163.302l341.096 545.751c41.806 66.887 139.214 66.887 181.019 0z" />
<glyph unicode="&#xe906;" glyph-name="pointer-left" d="M182.556 357.491l545.752-341.099c71.091-44.429 163.302 6.682 163.302 90.513v682.19c0 83.833-92.211 134.942-163.302 90.511l-545.752-341.095c-66.887-41.807-66.887-139.215 0-181.019z" />
<glyph unicode="&#xe907;" glyph-name="pointer-right" d="M841.444 357.491l-545.752-341.099c-71.090-44.429-163.303 6.682-163.303 90.513v682.19c0 83.833 92.213 134.942 163.303 90.511l545.752-341.095c66.889-41.807 66.889-139.215 0-181.019z" />
<glyph unicode="&#xe908;" glyph-name="product-fill" d="M555.917 0v408.465l357.534 206.132v-382.132c0-8.384-2.214-16.619-6.421-23.868-4.203-7.253-10.253-13.261-17.532-17.421-144.742-83.529-246.080-141.675-301.158-172.932-13.184-7.479-24.081-13.577-32.337-18.202l-0.085-0.043zM469.449 2.031c-64.849 34.586-217.286 121.963-333.539 189.060-7.269 4.164-13.31 10.176-17.508 17.425-4.198 7.253-6.407 15.484-6.402 23.859v386.070l357.491-206.089v-410.368l-0.043 0.043zM516.143 485.333l-364.195 209.894 139.557 80.5 364.236-210.025-139.597-80.368zM742.293 615.679l-364.239 209.981 110.935 63.985c7.219 4.161 15.403 6.353 23.735 6.355 8.277-0.017 16.41-2.177 23.603-6.269l340.548-196.493-134.583-77.559z" />
<glyph unicode="&#xe909;" glyph-name="customers-fill" d="M803.405 142.131c0-6.78 7.39-13.628 13.461-10.611 52.117 25.903 97.83 62.75 134.14 107.533 6.114 7.539 9.306 17.041 8.862 26.739-1.361 29.833-6.771 58.624-15.697 85.811-6.387 19.443-21.163 34.837-39.791 43.311-81.306 36.971-171.631 57.566-266.769 57.566-20.254 0-34.59-21.171-19.396-34.569 4.762-4.194 10.197-7.509 16.277-9.651 31.919-11.243 62.839-24.619 92.591-39.957l14.208-7.326c9.097-4.689 16.311-12.352 20.446-21.713l6.464-14.622c22.669-51.307 35.204-108.032 35.204-167.394v-15.117zM632.969 579.631c-0.815-3.096 1.421-6.191 4.621-6.191 89.071 0 161.28 72.207 161.28 161.28s-72.209 161.28-161.28 161.28c-21.5 0-42.018-4.207-60.774-11.843-26.935-10.965-24.439-46.080-4.467-67.22 42.675-45.181 68.843-106.125 68.843-173.18 0-22.159-2.859-43.65-8.222-64.126zM120.060 305.357c-18.633-8.469-33.411-23.859-39.8-43.302-7.437-22.635-12.437-46.374-14.69-70.908-1.775-19.332 4.695-38.477 17.468-53.094 73.911-84.587 182.58-138.052 303.728-138.052s229.819 53.431 303.726 138.014c12.774 14.618 19.243 33.762 17.472 53.094-2.253 24.525-7.249 48.265-14.677 70.895-6.383 19.443-21.158 34.837-39.791 43.311-81.301 36.971-171.631 57.566-266.767 57.566-95.098 0-185.391-20.578-266.668-57.523zM547.985 645.12c0-89.073-72.205-161.28-161.278-161.28s-161.28 72.207-161.28 161.28c0 89.073 72.207 161.28 161.28 161.28s161.278-72.207 161.278-161.28z" />
<glyph unicode="&#xe90a;" glyph-name="promotions-fill" d="M366.068 127.565c6.404-23.902-7.779-48.465-31.678-54.869s-48.465 7.778-54.868 31.676l-49.896 186.214h-76.025c-49.484 0-89.6 40.115-89.6 89.6v179.2c0 49.484 40.115 89.6 89.6 89.6h220.626l341.738 170.868c29.786 14.894 64.832-6.767 64.832-40.070v-616.622c0-33.301-35.046-54.963-64.832-40.068l-334.992 167.492h-58.586l43.683-163.021zM870.4 335.155c0-43.034 48.943-57.033 63.458-16.525 16.922 47.223 26.142 98.112 26.142 151.155s-9.22 103.932-26.142 151.154c-14.515 40.512-63.458 26.512-63.458-16.522v-269.263z" />
<glyph unicode="&#xe90b;" glyph-name="cms-fill" d="M64 806.4c0 49.485 40.115 89.6 89.6 89.6h224c49.485 0 89.6-40.115 89.6-89.6v-716.8c0-49.485-40.115-89.6-89.6-89.6h-224c-49.485 0-89.6 40.115-89.6 89.6v716.8zM556.8 806.4c0 49.485 40.115 89.6 89.6 89.6h224c49.485 0 89.6-40.115 89.6-89.6v-224c0-49.485-40.115-89.6-89.6-89.6h-224c-49.485 0-89.6 40.115-89.6 89.6v224zM556.8 313.6c0 49.485 40.115 89.6 89.6 89.6h224c49.485 0 89.6-40.115 89.6-89.6v-224c0-49.485-40.115-89.6-89.6-89.6h-224c-49.485 0-89.6 40.115-89.6 89.6v224z" />
<glyph unicode="&#xe90c;" glyph-name="reports-fill" d="M724.8 806.4c0 49.485 40.115 89.6 89.6 89.6h56c49.485 0 89.6-40.115 89.6-89.6v-716.8c0-49.485-40.115-89.6-89.6-89.6h-56c-49.485 0-89.6 40.115-89.6 89.6v716.8zM394.176 537.6c0 49.485 40.115 89.6 89.6 89.6h56c49.485 0 89.6-40.115 89.6-89.6v-448c0-49.485-40.115-89.6-89.6-89.6h-56c-49.485 0-89.6 40.115-89.6 89.6v448zM64 268.8c0 49.485 40.115 89.6 89.6 89.6h56c49.485 0 89.6-40.115 89.6-89.6v-179.2c0-49.485-40.115-89.6-89.6-89.6h-56c-49.485 0-89.6 40.115-89.6 89.6v179.2z" />
<glyph unicode="&#xe90d;" glyph-name="stores-fill" d="M427.853 533.897c1.165-1.085 2.291-2.228 3.375-3.431 5.295-5.884 11.008-11.123 17.037-15.68 6.566-4.966 13.508-9.122 20.715-12.442 13.585-6.251 27.938-9.438 42.313-9.532h1.357c14.37 0.094 28.727 3.281 42.308 9.532 7.206 3.319 14.148 7.475 20.715 12.442 6.029 4.557 11.742 9.796 17.037 15.68 1.088 1.203 2.21 2.347 3.375 3.431l-34.065 272.507h-100.1l-34.065-272.507zM313.041 502.345c7.206 3.319 14.15 7.475 20.716 12.442 0.524 0.397 1.045 0.798 1.564 1.203l36.302 290.415h-103.085l-114.521-190.869c1.080-14.231 4.129-28.156 9.012-41.255 2.066-5.543 4.444-10.891 7.107-16.015 5.333-10.263 11.796-19.6 19.176-27.799 11.063-12.292 23.939-21.76 37.753-28.122 13.583-6.251 27.936-9.438 42.31-9.532h1.356c14.374 0.094 28.728 3.281 42.31 9.532zM753.207 492.813h1.357c14.374 0.094 28.727 3.281 42.308 9.532 13.815 6.362 26.692 15.829 37.756 28.122 7.377 8.198 13.841 17.535 19.174 27.799 2.662 5.124 5.039 10.473 7.104 16.015 4.885 13.1 7.936 27.024 9.015 41.255l-114.522 190.869h-103.087l36.305-290.415c0.516-0.41 1.041-0.811 1.562-1.203 6.566-4.966 13.513-9.122 20.715-12.442 13.585-6.251 27.938-9.438 42.313-9.532zM198.374 0.017c-20.194 0-38.827 6.682-53.81 17.95-7.965 5.99-14.898 13.282-20.486 21.551-9.662 14.302-15.304 31.543-15.304 50.099v398.076c-6.769 9.25-12.832 19.038-18.144 29.261-4.362 8.393-8.222 17.088-11.555 26.029-9.905 26.568-15.002 54.89-15.097 83.415-0.081 4.263 0.445 8.566 1.614 12.773 1.156 4.183 2.904 8.121 5.148 11.717l120.969 201.615c16.192 26.988 45.357 43.5 76.83 43.5h153.128c0.431 0.006 0.864 0.006 1.297 0h178.015c0.431 0.006 0.862 0.006 1.297 0h153.126c31.471 0 60.638-16.513 76.83-43.5l120.969-201.615c2.244-3.594 3.989-7.529 5.146-11.71 1.169-4.21 1.698-8.515 1.617-12.781-0.094-28.524-5.193-56.846-15.1-83.414-3.332-8.941-7.189-17.636-11.554-26.029-5.312-10.227-11.375-20.015-18.146-29.265v-398.071c0-49.485-40.115-89.6-89.596-89.6h-627.192zM287.969 179.217c0-24.742 20.057-44.8 44.799-44.8s44.8 20.058 44.8 44.8v134.4c0 24.742-20.058 44.796-44.8 44.796s-44.799-20.053-44.799-44.796v-134.4z" />
<glyph unicode="&#xe90e;" glyph-name="system-config-fill" d="M511.974 928c72.299 0 130.91-58.61 130.91-130.909v-25.386c30.34-12.279 58.539-28.688 83.908-48.516l22.046 12.728c62.613 36.149 142.677 14.697 178.825-47.916 36.151-62.612 14.699-142.675-47.915-178.825l-22.020-12.715c2.206-15.855 3.341-32.034 3.341-48.461s-1.135-32.606-3.341-48.461l22.020-12.715c62.613-36.147 84.066-116.211 47.915-178.825-36.147-62.613-116.211-84.066-178.825-47.915l-22.046 12.727c-25.37-19.831-53.568-36.237-83.908-48.516v-25.387c0-72.299-58.611-130.91-130.91-130.91s-130.908 58.611-130.908 130.91v25.387c-30.338 12.279-58.539 28.689-83.908 48.521l-22.054-12.732c-62.613-36.151-142.676-14.699-178.825 47.915s-14.697 142.677 47.916 178.825l22.034 12.723c-2.204 15.851-3.341 32.030-3.341 48.452s1.137 32.602 3.341 48.452l-22.033 12.723c-62.613 36.149-84.066 116.212-47.916 178.825s116.212 84.065 178.825 47.916l22.054-12.733c25.37 19.829 53.571 36.239 83.908 48.519v25.389c0 72.299 58.609 130.909 130.908 130.909zM511.991 578.909c-72.299 0-130.908-58.61-130.908-130.909s58.609-130.91 130.908-130.91c72.299 0 130.91 58.611 130.91 130.91s-58.611 130.909-130.91 130.909z" />
<glyph unicode="&#xe90f;" glyph-name="lego-fill" d="M299.79 754.526c0 78.134 63.34 141.474 141.473 141.474 78.135 0 141.474-63.34 141.474-141.474h141.474c52.087 0 94.315-42.227 94.315-94.316v-141.473c78.135 0 141.474-63.339 141.474-141.474s-63.339-141.474-141.474-141.474v-141.474c0-52.087-42.227-94.315-94.315-94.315h-188.634c-26.044 0-47.155 21.111-47.155 47.159v47.155c0 26.044-21.116 47.159-47.159 47.159s-47.158-21.116-47.158-47.159v-47.155c0-26.048-21.113-47.159-47.158-47.159h-188.631c-52.089 0-94.316 42.227-94.316 94.315v188.634c0 26.044 21.113 47.155 47.158 47.155h47.158c26.045 0 47.158 21.116 47.158 47.159s-21.113 47.159-47.158 47.159h-47.158c-26.045 0-47.158 21.111-47.158 47.155v188.633c0 52.089 42.227 94.316 94.316 94.316h141.474z" />
<glyph unicode="&#xe911;" glyph-name="more-horizontal" d="M298.667 448c0 47.13-38.205 85.333-85.333 85.333s-85.333-38.204-85.333-85.333c0-47.13 38.205-85.333 85.333-85.333s85.333 38.204 85.333 85.333zM511.999 533.333c47.13 0 85.333-38.204 85.333-85.333s-38.204-85.333-85.333-85.333c-47.125 0-85.333 38.204-85.333 85.333s38.208 85.333 85.333 85.333zM810.665 533.333c47.13 0 85.333-38.204 85.333-85.333s-38.204-85.333-85.333-85.333c-47.125 0-85.333 38.204-85.333 85.333s38.208 85.333 85.333 85.333z" />
<glyph unicode="&#xe912;" glyph-name="star" d="M512.001 895.999c25.741 0 48.951-15.486 58.837-39.253l97.425-234.236 252.877-20.273c25.66-2.057 47.561-19.349 55.518-43.83 7.953-24.481 0.397-51.344-19.153-68.090l-192.666-165.039 58.863-246.767c5.973-25.037-3.703-51.209-24.529-66.338-20.826-15.134-48.708-16.247-70.677-2.829l-216.495 132.237-216.5-132.237c-21.967-13.419-49.85-12.305-70.675 2.829-20.825 15.13-30.502 41.301-24.53 66.338l58.863 246.767-192.666 165.039c-19.549 16.747-27.104 43.609-19.15 68.090s29.856 41.773 55.515 43.83l252.877 20.273 97.424 234.236c9.886 23.767 33.101 39.253 58.842 39.253z" />
</font>
</defs>
</svg>
